<svg id="card" fill="none" xmlns="http://www.w3.org/2000/svg" viewBox="0 0 22 18">
  <path d="M12.0007 11.4999C12.0007 11.0029 12.6029 10.9999 13.1 10.9999H17.2999C17.797 10.9999 18.5007 11.0029 18.5007 11.4999C18.5007 11.997 17.797 11.9999 17.2999 11.9999H13.1C12.6029 11.9999 12.0007 11.997 12.0007 11.4999Z" fill="currentColor"></path>
  <path fill-rule="evenodd" clip-rule="evenodd" d="M0.199951 3.90001C0.199951 2.07747 1.67741 0.600006 3.49995 0.600006H18.5C20.3225 0.600006 21.7999 2.07747 21.7999 3.90001V14.1C21.7999 15.9225 20.3225 17.4 18.5 17.4H3.49995C1.67741 17.4 0.199951 15.9225 0.199951 14.1V3.90001ZM3.49995 2.40001C2.67152 2.40001 1.99995 3.07158 1.99995 3.90001V4.52489C2.00073 4.49991 1.99995 5.99991 1.99995 5.99991H20C20 5.99991 20.0007 4.49991 20 4.52489V3.90001C20 3.07158 19.3284 2.40001 18.5 2.40001H3.49995ZM20 8.07512L20.0007 7.49991H1.99995V8.07512V14.1C1.99995 14.9284 2.67152 15.6 3.49995 15.6H18.5C19.3284 15.6 20 14.9284 20 14.1V8.07512Z" fill="currentColor"></path>
</svg>