<svg id="document" fill="none" xmlns="http://www.w3.org/2000/svg" viewBox="0 0 20 16">
  <path fill-rule="evenodd" clip-rule="evenodd" d="M3.25 5.125C3.25 4.08947 4.08947 3.25 5.125 3.25H7.375C8.41053 3.25 9.25 4.08947 9.25 5.125V7.375C9.25 8.41053 8.41053 9.25 7.375 9.25H5.125C4.08947 9.25 3.25 8.41053 3.25 7.375V5.125ZM5.125 4.75C4.91789 4.75 4.75 4.91789 4.75 5.125V7.375C4.75 7.58211 4.91789 7.75 5.125 7.75H7.375C7.58211 7.75 7.75 7.58211 7.75 7.375V5.125C7.75 4.91789 7.58211 4.75 7.375 4.75H5.125Z" fill="currentColor"></path>
  <path d="M13.75 3.25C13.3358 3.25 13 3.58579 13 4C13 4.41421 13.3358 4.75 13.75 4.75H16C16.4142 4.75 16.75 4.41421 16.75 4C16.75 3.58579 16.4142 3.25 16 3.25H13.75Z" fill="currentColor"></path>
  <path d="M10.75 7.75C10.75 7.33579 11.0858 7 11.5 7H16C16.4142 7 16.75 7.33579 16.75 7.75C16.75 8.16421 16.4142 8.5 16 8.5H11.5C11.0858 8.5 10.75 8.16421 10.75 7.75Z" fill="currentColor"></path>
  <path d="M4 10.75C3.58579 10.75 3.25 11.0858 3.25 11.5C3.25 11.9142 3.58579 12.25 4 12.25H16C16.4142 12.25 16.75 11.9142 16.75 11.5C16.75 11.0858 16.4142 10.75 16 10.75H4Z" fill="currentColor"></path>
  <path fill-rule="evenodd" clip-rule="evenodd" d="M0.25 2.5C0.25 1.25736 1.25736 0.25 2.5 0.25H17.5C18.7426 0.25 19.75 1.25736 19.75 2.5V13C19.75 14.2426 18.7426 15.25 17.5 15.25H2.5C1.25736 15.25 0.25 14.2426 0.25 13V2.5ZM2.5 1.75C2.08579 1.75 1.75 2.08579 1.75 2.5V13C1.75 13.4142 2.08579 13.75 2.5 13.75H17.5C17.9142 13.75 18.25 13.4142 18.25 13V2.5C18.25 2.08579 17.9142 1.75 17.5 1.75H2.5Z" fill="currentColor"></path>
</svg>