<svg id="qiwi" fill="none" xmlns="http://www.w3.org/2000/svg" viewBox="0 0 45 16">
  <path d="M22.2198 7.45054C23 7.45054 23.4681 6.7661 23.4681 5.65882C23.4681 4.55154 23 3.86711 22.2198 3.86711C21.4397 3.86711 20.9645 4.52646 20.9645 5.65882C20.9645 6.79119 21.4539 7.45054 22.2198 7.45054ZM24.3936 9.94102C24.3846 9.95162 24.3735 9.96012 24.3609 9.96595C24.3484 9.97179 24.3347 9.97481 24.3209 9.97481C24.3071 9.97481 24.2934 9.97179 24.2809 9.96595C24.2683 9.96012 24.2572 9.95162 24.2482 9.94102L23.8652 9.40351C23.6822 9.14051 23.4345 8.93019 23.1467 8.79323C22.8588 8.65626 22.5406 8.59736 22.2234 8.62232C20.6454 8.62232 19.656 7.47562 19.656 5.65166C19.656 3.82769 20.6454 2.67383 22.2234 2.67383C23.8014 2.67383 24.7837 3.82053 24.7837 5.65166C24.7837 6.57976 24.461 7.52221 23.922 7.8483C23.8262 7.90563 23.8262 7.93072 23.922 7.96297C24.3022 8.09211 24.6298 8.34392 24.8546 8.67965L25.2092 9.17416C25.2197 9.18325 25.2281 9.19452 25.2339 9.2072C25.2396 9.21988 25.2426 9.23367 25.2426 9.24763C25.2426 9.26158 25.2396 9.27537 25.2339 9.28805C25.2281 9.30073 25.2197 9.312 25.2092 9.32108L24.3936 9.94102Z" fill="#001EA3"></path>
  <path d="M25.7801 2.76367H26.8758C26.904 2.76367 26.9311 2.775 26.951 2.79516C26.971 2.81532 26.9822 2.84266 26.9822 2.87118V8.42549C26.9822 8.454 26.971 8.48134 26.951 8.5015C26.9311 8.52166 26.904 8.53299 26.8758 8.53299H25.7801C25.7528 8.53299 25.7267 8.52204 25.7074 8.50255C25.6881 8.48306 25.6772 8.45663 25.6772 8.42907V2.86759C25.6781 2.84031 25.6892 2.8144 25.7083 2.7951C25.7274 2.7758 25.7531 2.76457 25.7801 2.76367Z" fill="#001EA3"></path>
  <path d="M34.4363 6.78015C34.2909 7.34275 34.1703 7.88026 34.0816 8.43211C34.0808 8.4461 34.0771 8.45976 34.0709 8.47228C34.0646 8.48479 34.0559 8.49591 34.0453 8.50494C34.0347 8.51398 34.0224 8.52076 34.0092 8.52487C33.9959 8.52898 33.982 8.53034 33.9682 8.52886H32.4788C32.465 8.53034 32.4511 8.52898 32.4378 8.52487C32.4245 8.52076 32.4122 8.51398 32.4016 8.50494C32.391 8.49591 32.3824 8.48479 32.3761 8.47228C32.3699 8.45976 32.3662 8.4461 32.3653 8.43211C32.2767 7.9591 32.188 7.52908 32.0745 7.08116L31.8263 6.00613C31.7767 5.79471 31.7128 5.45428 31.6667 5.16761C31.6667 5.05294 31.5533 5.05294 31.5391 5.16761C31.4894 5.4507 31.4256 5.78754 31.3795 6.00613L31.1313 7.08116C31.0249 7.52908 30.9363 7.9591 30.8405 8.43211C30.8396 8.4461 30.836 8.45976 30.8297 8.47228C30.8235 8.48479 30.8148 8.49591 30.8042 8.50494C30.7936 8.51398 30.7813 8.52076 30.768 8.52487C30.7548 8.52898 30.7408 8.53034 30.727 8.52886H29.2519C29.2381 8.53034 29.2241 8.52898 29.2109 8.52487C29.1976 8.52076 29.1853 8.51398 29.1747 8.50494C29.1641 8.49591 29.1554 8.48479 29.1492 8.47228C29.1429 8.45976 29.1393 8.4461 29.1384 8.43211C29.032 7.88026 28.9114 7.35708 28.7838 6.78015L27.7767 2.86705C27.7519 2.80255 27.7767 2.75238 27.8653 2.75238H28.9753C29.0027 2.74999 29.03 2.75776 29.0522 2.77424C29.0744 2.79072 29.0899 2.81479 29.0958 2.84196L29.6419 5.0386C29.7823 5.62812 29.8818 6.22681 29.9398 6.83032C29.9398 6.93782 30.0675 6.94499 30.0852 6.83032C30.1676 6.22641 30.286 5.62808 30.4398 5.0386L31.032 2.86705C31.0377 2.84115 31.0522 2.81807 31.0729 2.80173C31.0936 2.7854 31.1192 2.77682 31.1455 2.77746H32.0639C32.0902 2.77682 32.1158 2.7854 32.1365 2.80173C32.1572 2.81807 32.1716 2.84115 32.1774 2.86705L32.7731 5.06369C32.9268 5.65318 33.0453 6.25151 33.1277 6.8554C33.1277 6.97007 33.2554 6.9629 33.266 6.8554C33.3201 6.25138 33.4197 5.65241 33.5639 5.06369L34.1065 2.86705C34.1124 2.83987 34.1279 2.8158 34.1501 2.79932C34.1722 2.78284 34.1996 2.77507 34.227 2.77746H35.337C35.4079 2.77746 35.4504 2.82763 35.4256 2.89213L34.4363 6.78015Z" fill="#001EA3"></path>
  <path d="M36.3299 2.76367H37.4256C37.4539 2.76367 37.4809 2.775 37.5009 2.79516C37.5208 2.81532 37.532 2.84266 37.532 2.87118V8.42549C37.532 8.454 37.5208 8.48134 37.5009 8.5015C37.4809 8.52166 37.4539 8.53299 37.4256 8.53299H36.3299C36.3026 8.53299 36.2765 8.52204 36.2572 8.50255C36.2379 8.48306 36.2271 8.45663 36.2271 8.42907V2.86759C36.2279 2.84031 36.2391 2.8144 36.2582 2.7951C36.2772 2.7758 36.3029 2.76457 36.3299 2.76367Z" fill="#001EA3"></path>
  <path d="M17.4609 15.3626C17.5957 15.531 17.39 15.721 17.2375 15.5669C15.7056 14.198 14.4184 13.8074 13.1453 13.7537C12.4607 13.7422 11.776 13.7757 11.0957 13.854L10.6701 13.8898H10.4822C10.2325 13.9177 9.98158 13.9321 9.73041 13.9328C8.55888 13.9395 7.4056 13.6395 6.38289 13.0621C5.36225 12.491 4.516 11.6483 3.93608 10.6253C3.35064 9.59921 3.04589 8.43417 3.0531 7.24974C3.0476 6.061 3.35215 4.89178 3.93608 3.85982C4.50934 2.84115 5.33916 1.99393 6.34128 1.40421C7.34339 0.814484 8.4821 0.503261 9.64176 0.502146C10.8318 0.493172 12.0037 0.796946 13.0425 1.38367C14.0649 1.95796 14.9132 2.80283 15.4964 3.82757C16.0874 4.85578 16.3959 6.02485 16.39 7.21391C16.3911 7.67956 16.346 8.14415 16.2552 8.60069C16.2552 8.66519 16.2269 8.74403 16.2056 8.83361C16.1843 8.9232 16.1701 8.98053 16.1488 9.0522C15.9614 9.62093 15.7091 10.1657 15.3971 10.6755C15.3545 10.7472 15.3297 10.6755 15.3226 10.6504C15.2813 10.186 15.1364 9.73701 14.8987 9.3373C14.661 8.93759 14.3367 8.59754 13.9503 8.34268L13.9113 8.3176C13.7792 8.23543 13.6418 8.1624 13.4999 8.09901C13.3034 8.012 13.1007 7.94013 12.8935 7.88401C12.7623 7.84817 12.4645 7.8625 12.5708 7.755C13.0421 7.70059 13.518 7.70059 13.9893 7.755H14.0318C14.046 7.59972 14.0531 7.43966 14.0531 7.27482C14.0701 6.67929 13.9645 6.08669 13.7429 5.5346C13.5213 4.9825 13.1886 4.48296 12.7659 4.06766C12.3668 3.65016 11.8869 3.32017 11.3562 3.09823C10.8254 2.87628 10.2551 2.76715 9.68076 2.77762C9.10669 2.76108 8.53565 2.86747 8.00515 3.08981C7.47466 3.31215 6.99673 3.64539 6.60275 4.06766C6.19586 4.48357 5.87622 4.97818 5.66295 5.52187C5.44969 6.06557 5.3472 6.64716 5.36161 7.23182C5.34755 7.81972 5.45438 8.40417 5.67534 8.9482C5.8963 9.49223 6.22659 9.984 6.6453 10.3924C7.03784 10.8075 7.51108 11.136 8.03528 11.3574C8.55949 11.5788 9.12333 11.6882 9.6914 11.6789H9.86161V11.6359C9.79424 10.7507 9.78005 10.0197 9.95736 10.3136C10.0212 10.4175 10.085 10.5178 10.1453 10.611C10.3549 10.9281 10.5923 11.2255 10.8545 11.4997L10.89 11.5355C11.7375 12.4027 12.5708 12.6105 13.4574 12.8363H13.5141L13.9538 12.9474C15.0176 13.2305 16.1488 13.6892 17.4786 15.3554L17.4609 15.3626ZM14.5389 10.0341C14.4077 9.99464 14.312 10.0341 14.2623 10.1129C14.2329 10.2213 14.2291 10.3352 14.2513 10.4454C14.2734 10.5556 14.321 10.659 14.39 10.7472C14.5389 10.9837 14.6666 11.1055 14.7659 11.1055C14.7828 11.1053 14.7996 11.1013 14.8149 11.0939C14.8302 11.0864 14.8437 11.0757 14.8545 11.0625C14.9143 10.9533 14.932 10.8257 14.9042 10.7042C14.896 10.5721 14.859 10.4436 14.7959 10.3277C14.7327 10.2119 14.645 10.1116 14.5389 10.0341ZM13.0637 11.1091C13.0052 11.1061 12.9468 11.1164 12.8927 11.1394C12.8387 11.1623 12.7905 11.1973 12.7517 11.2417C12.6723 11.3789 12.6461 11.5409 12.6782 11.6965C12.7103 11.8521 12.7984 11.9901 12.9254 12.0838C13.053 12.1906 13.2136 12.2489 13.3793 12.2486C13.4548 12.2523 13.5301 12.238 13.599 12.2068C13.668 12.1757 13.7288 12.1287 13.7765 12.0694C13.9325 11.858 13.8439 11.557 13.546 11.3026C13.4129 11.1826 13.2421 11.114 13.0637 11.1091Z" fill="#FF8C00"></path>
  <path d="M26.9503 9.82456L26.1737 10.7312V9.82456H25.656V12.1072H26.1808V11.1648C26.3214 11.1557 26.4606 11.1961 26.575 11.2791C26.6895 11.362 26.7719 11.4824 26.8085 11.6199C26.863 11.7747 26.9307 11.9246 27.0106 12.0678L27.0319 12.1036H27.5993L27.539 11.9925C27.467 11.8548 27.4042 11.7123 27.351 11.5661L27.3049 11.4658C27.2584 11.3127 27.177 11.1727 27.0675 11.057C26.9579 10.9413 26.823 10.853 26.6737 10.7992L27.6206 9.80664L26.9503 9.82456Z" fill="#F39627"></path>
  <path d="M28.7731 9.7755C28.6196 9.77454 28.4675 9.80578 28.3266 9.86722C28.1856 9.92867 28.0588 10.019 27.9542 10.1325C27.8495 10.246 27.7693 10.3802 27.7186 10.5266C27.6679 10.673 27.6478 10.8284 27.6596 10.9831C27.6463 11.1322 27.6639 11.2825 27.7113 11.4243C27.7588 11.5661 27.835 11.6963 27.9352 11.8066C28.0353 11.9169 28.1572 12.0049 28.2929 12.0649C28.4287 12.1248 28.5753 12.1555 28.7234 12.1549C28.8778 12.1573 29.031 12.1272 29.1732 12.0664C29.3155 12.0057 29.4436 11.9156 29.5494 11.8019C29.6551 11.6882 29.7363 11.5535 29.7877 11.4064C29.839 11.2592 29.8594 11.1029 29.8475 10.9473C29.861 10.7973 29.8431 10.6461 29.795 10.5035C29.7469 10.361 29.6697 10.2302 29.5684 10.1197C29.4671 10.0093 29.3439 9.92154 29.2069 9.86223C29.0699 9.80293 28.9221 9.77338 28.7731 9.7755ZM29.3227 10.9616C29.3227 11.3988 29.0851 11.7141 28.7553 11.7141C28.4255 11.7141 28.188 11.4024 28.188 10.9688C28.188 10.6104 28.3653 10.2163 28.7624 10.2163C29.1596 10.2163 29.3227 10.7036 29.3227 10.9616Z" fill="#F39627"></path>
  <path d="M32.4114 11.6537H31.8227V9.82617H31.3015V11.6537H30.7128V9.82617H30.188V12.1052H32.9398V9.82617H32.4114V11.6537Z" fill="#F39627"></path>
  <path d="M34.3971 9.77539C33.7694 9.77539 33.3333 10.2771 33.3333 11.0009C33.3226 11.1523 33.3438 11.3043 33.3954 11.4468C33.447 11.5893 33.5279 11.7192 33.6327 11.8278C33.7376 11.9365 33.864 12.0215 34.0037 12.0772C34.1434 12.1329 34.2932 12.1582 34.4432 12.1512C34.6937 12.1573 34.9427 12.1097 35.1737 12.0115L35.2304 11.9864L35.1311 11.5635L35.0496 11.5994C34.8737 11.6746 34.6837 11.7101 34.4928 11.7033C34.4127 11.7071 34.3326 11.6947 34.2572 11.6666C34.1819 11.6386 34.113 11.5956 34.0544 11.5401C33.9959 11.4846 33.949 11.4178 33.9165 11.3437C33.8839 11.2695 33.8665 11.1895 33.8652 11.1084H35.3368V11.0224C35.3402 10.9663 35.3402 10.9101 35.3368 10.854C35.3511 10.7196 35.3376 10.5837 35.2971 10.4549C35.2566 10.3261 35.1901 10.2072 35.1017 10.1058C35.0134 10.0044 34.9051 9.92263 34.7838 9.86575C34.6625 9.80887 34.5308 9.7781 34.3971 9.77539ZM34.8226 10.682H33.8652C33.8807 10.5502 33.9434 10.4287 34.0413 10.3403C34.1392 10.2519 34.2658 10.2026 34.3971 10.2018C34.4543 10.1991 34.5115 10.2082 34.5652 10.2285C34.6188 10.2488 34.6678 10.28 34.7091 10.3201C34.7904 10.423 34.8353 10.5504 34.8368 10.682H34.8226Z" fill="#F39627"></path>
  <path d="M35.9149 10.7507C35.9149 11.238 35.8866 11.4925 35.7234 11.6143C35.6718 11.6515 35.6123 11.6761 35.5497 11.686H35.4788L35.5355 12.1267H35.5993C35.7639 12.1362 35.9264 12.0853 36.0568 11.9834C36.3617 11.7827 36.4114 11.3599 36.4114 10.7399V10.2777H36.9894V12.1052H37.5142V9.82617H35.9007L35.9149 10.7507Z" fill="#F39627"></path>
  <path d="M39.0069 9.77539C38.3793 9.77539 37.9431 10.2771 37.9431 11.0009C37.9324 11.1523 37.9536 11.3043 38.0052 11.4468C38.0568 11.5893 38.1377 11.7192 38.2426 11.8278C38.3474 11.9365 38.4739 12.0215 38.6135 12.0772C38.7532 12.1329 38.903 12.1582 39.053 12.1512C39.3036 12.1573 39.5526 12.1097 39.7835 12.0115L39.8403 11.9864L39.741 11.5635L39.6594 11.5994C39.4836 11.6748 39.2936 11.7102 39.1027 11.7033C39.0211 11.7096 38.9391 11.6991 38.8617 11.6722C38.7843 11.6453 38.7131 11.6027 38.6527 11.5469C38.5922 11.4912 38.5437 11.4235 38.5101 11.3481C38.4765 11.2727 38.4585 11.1911 38.4573 11.1084H39.9289V11.026C39.9324 10.9687 39.9324 10.9113 39.9289 10.854C39.9431 10.7211 39.9301 10.5867 39.8907 10.4591C39.8513 10.3314 39.7864 10.2134 39.6999 10.1122C39.6134 10.0111 39.5073 9.92896 39.3881 9.87101C39.2689 9.81306 39.1391 9.78052 39.0069 9.77539ZM39.4325 10.682H38.475C38.4897 10.5555 38.5477 10.4382 38.6391 10.3505C38.7304 10.2628 38.8493 10.2102 38.975 10.2018C39.0323 10.1991 39.0895 10.2082 39.1431 10.2285C39.1968 10.2488 39.2457 10.28 39.2871 10.3201C39.3737 10.4209 39.4237 10.5486 39.4289 10.682H39.4325Z" fill="#F39627"></path>
  <path d="M42.0639 11.571L42.0285 11.4814C41.9819 11.3283 41.9006 11.1883 41.791 11.0726C41.6814 10.9569 41.5466 10.8686 41.3973 10.8149L42.3441 9.82227H41.6703L40.8937 10.7289V9.82585H40.3689V12.1085H40.8937V11.166C41.0342 11.157 41.1735 11.1974 41.2879 11.2804C41.4023 11.3633 41.4848 11.4837 41.5214 11.6211C41.576 11.776 41.6437 11.9258 41.7235 12.0691L41.7448 12.1049H42.3122L42.2519 11.9938C42.1801 11.8572 42.1173 11.716 42.0639 11.571Z" fill="#F39627"></path>
  <path d="M38.8511 9.1875H38.6135V9.54584H38.8511V9.1875Z" fill="#FF8C00"></path>
  <path d="M39.4043 9.1875H39.1667V9.54584H39.4043V9.1875Z" fill="#FF8C00"></path>
</svg>