<svg id="ig" viewBox="0 0 32 32" fill="none" xmlns="http://www.w3.org/2000/svg">
  <path fill-rule="evenodd" clip-rule="evenodd" d="M1.59998 15.9996C1.59998 8.04761 8.04798 1.59961 16 1.59961C23.952 1.59961 30.4 8.04761 30.4 15.9996C30.4 23.9516 23.952 30.3996 16 30.3996C8.04798 30.3996 1.59998 23.9516 1.59998 15.9996ZM20 24.7996C22.656 24.7996 24.8 22.6556 24.8 19.9996V11.9996C24.8 9.34361 22.656 7.19961 20 7.19961H12C9.34398 7.19961 7.19998 9.34361 7.19998 11.9996V19.9996C7.19998 22.6556 9.34398 24.7996 12 24.7996H20ZM20.0003 9.11914H12.0003C10.4163 9.11914 9.1203 10.4151 9.1203 11.9991V19.9991C9.1203 21.5831 10.4163 22.8791 12.0003 22.8791H20.0003C21.5843 22.8791 22.8803 21.5831 22.8803 19.9991V11.9991C22.8803 10.4151 21.5843 9.11914 20.0003 9.11914ZM16.0003 20.3191C13.6163 20.3191 11.6803 18.3831 11.6803 15.9991C11.6803 13.6151 13.6163 11.6791 16.0003 11.6791C18.3843 11.6791 20.3203 13.6151 20.3203 15.9991C20.3203 18.3831 18.3843 20.3191 16.0003 20.3191ZM20.8003 12.0151C20.3523 12.0151 20.0003 11.6631 20.0003 11.2151C20.0003 10.7671 20.3523 10.4151 20.8003 10.4151C21.2483 10.4151 21.6003 10.7671 21.6003 11.2151C21.6003 11.6631 21.2483 12.0151 20.8003 12.0151ZM16 18.3996C17.3255 18.3996 18.4 17.3251 18.4 15.9996C18.4 14.6741 17.3255 13.5996 16 13.5996C14.6745 13.5996 13.6 14.6741 13.6 15.9996C13.6 17.3251 14.6745 18.3996 16 18.3996Z" fill="currentColor" />
</svg>