<svg id="logo" fill="none" xmlns="http://www.w3.org/2000/svg" viewBox="0 0 136 20">
  <path d="M0.698208 19.7222C0.512019 19.7222 0.344449 19.6574 0.195498 19.5278C0.0651661 19.3796 0 19.213 0 19.0278V0.972223C0 0.768519 0.0651661 0.601852 0.195498 0.472223C0.344449 0.342593 0.512019 0.277778 0.698208 0.277778H3.71447C4.16132 0.277778 4.48715 0.481481 4.69196 0.888889L9.60734 9.63889L14.5227 0.888889C14.7275 0.481481 15.0534 0.277778 15.5002 0.277778H18.4885C18.6934 0.277778 18.8609 0.342593 18.9913 0.472223C19.1402 0.601852 19.2147 0.768519 19.2147 0.972223V19.0278C19.2147 19.2315 19.1402 19.3981 18.9913 19.5278C18.8609 19.6574 18.6934 19.7222 18.4885 19.7222H15.1651C14.9603 19.7222 14.7834 19.6574 14.6344 19.5278C14.5041 19.3981 14.4389 19.2315 14.4389 19.0278V8.61111L11.311 14.4167C11.0689 14.8426 10.7431 15.0556 10.3335 15.0556H8.8812C8.63916 15.0556 8.44366 15 8.29471 14.8889C8.14576 14.7778 8.01543 14.6204 7.90371 14.4167L4.74781 8.61111V19.0278C4.74781 19.213 4.68265 19.3796 4.55232 19.5278C4.42198 19.6574 4.25441 19.7222 4.04961 19.7222H0.698208Z" fill="currentColor" />
  <path d="M29.412 19.7222C29.2258 19.7222 29.0583 19.6574 28.9093 19.5278C28.779 19.3796 28.7138 19.213 28.7138 19.0278V13.0556L22.2344 1.16667C22.1786 1 22.1506 0.898148 22.1506 0.861112C22.1506 0.712963 22.2065 0.583334 22.3182 0.472223C22.4486 0.342593 22.5975 0.277778 22.7651 0.277778H26.2561C26.6285 0.277778 26.9543 0.472222 27.2336 0.861112L31.2274 8.02778L35.249 0.861112C35.4725 0.472222 35.7983 0.277778 36.2265 0.277778H39.7176C39.8851 0.277778 40.0248 0.342593 40.1365 0.472223C40.2482 0.583334 40.3041 0.712963 40.3041 0.861112C40.3041 0.953704 40.2854 1.05556 40.2482 1.16667L33.7688 13.0556V19.0278C33.7688 19.2315 33.6944 19.3981 33.5454 19.5278C33.4151 19.6574 33.2475 19.7222 33.0427 19.7222H29.412Z" fill="currentColor" />
  <path d="M43.9533 19.7222C43.7671 19.7222 43.5995 19.6574 43.4506 19.5278C43.3202 19.3796 43.2551 19.213 43.2551 19.0278V0.972223C43.2551 0.768519 43.3202 0.601852 43.4506 0.472223C43.5995 0.342593 43.7671 0.277778 43.9533 0.277778H56.8003C57.0051 0.277778 57.1727 0.342593 57.303 0.472223C57.4333 0.601852 57.4985 0.768519 57.4985 0.972223V3.77778C57.4985 3.96296 57.4333 4.12963 57.303 4.27778C57.1727 4.40741 57.0051 4.47222 56.8003 4.47222H48.1705V8.55556H56.2417C56.4465 8.55556 56.6141 8.62963 56.7445 8.77778C56.8748 8.90741 56.9399 9.07407 56.9399 9.27778V12.0556C56.9399 12.2407 56.8748 12.4074 56.7445 12.5556C56.6141 12.6852 56.4465 12.75 56.2417 12.75H48.1705V19.0278C48.1705 19.2315 48.1053 19.3981 47.975 19.5278C47.8446 19.6574 47.6771 19.7222 47.4722 19.7222H43.9533Z" fill="currentColor" />
  <path d="M68.9291 20C66.3038 20 64.2371 19.3611 62.729 18.0833C61.2208 16.8056 60.4202 14.9259 60.3271 12.4444C60.3085 11.9074 60.2992 11.1111 60.2992 10.0556C60.2992 8.98148 60.3085 8.17593 60.3271 7.63889C60.4202 5.19444 61.2301 3.31482 62.7569 2C64.3023 0.666667 66.3596 0 68.9291 0C71.4985 0 73.5558 0.666667 75.1012 2C76.6466 3.31482 77.4565 5.19444 77.531 7.63889C77.5682 8.71296 77.5868 9.51852 77.5868 10.0556C77.5868 10.5741 77.5682 11.3704 77.531 12.4444C77.4379 14.9259 76.6373 16.8056 75.1291 18.0833C73.621 19.3611 71.5543 20 68.9291 20ZM68.9291 16C69.9531 16 70.763 15.6944 71.3588 15.0833C71.9732 14.4722 72.2991 13.537 72.3363 12.2778C72.3735 11.2037 72.3922 10.4444 72.3922 10C72.3922 9.51852 72.3735 8.75926 72.3363 7.72222C72.2991 6.46296 71.9732 5.52778 71.3588 4.91667C70.7444 4.30555 69.9345 4 68.9291 4C67.9236 4 67.1137 4.30555 66.4993 4.91667C65.9035 5.52778 65.5777 6.46296 65.5218 7.72222C65.5032 8.24074 65.4939 9 65.4939 10C65.4939 10.9815 65.5032 11.7407 65.5218 12.2778C65.5777 13.537 65.9035 14.4722 66.4993 15.0833C67.0951 15.6944 67.905 16 68.9291 16Z" fill="currentColor" />
  <path d="M82.0809 19.7222C81.8947 19.7222 81.7271 19.6574 81.5782 19.5278C81.4478 19.3796 81.3827 19.213 81.3827 19.0278V0.972223C81.3827 0.768519 81.4478 0.601852 81.5782 0.472223C81.7271 0.342593 81.8947 0.277778 82.0809 0.277778H89.6774C92.1165 0.277778 94.0156 0.833333 95.3748 1.94444C96.7526 3.03704 97.4415 4.59259 97.4415 6.61111C97.4415 7.90741 97.1343 9.00926 96.5198 9.91667C95.9054 10.8241 95.0582 11.5185 93.9783 12L97.8045 18.8333C97.8604 18.9444 97.8883 19.0463 97.8883 19.1389C97.8883 19.287 97.8232 19.4259 97.6928 19.5556C97.5811 19.6667 97.4508 19.7222 97.3018 19.7222H93.5874C93.0474 19.7222 92.6657 19.4722 92.4423 18.9722L89.2585 12.8611H86.4098V19.0278C86.4098 19.2315 86.3353 19.3981 86.1864 19.5278C86.056 19.6574 85.8885 19.7222 85.6836 19.7222H82.0809ZM89.6215 8.91667C90.478 8.91667 91.1297 8.71296 91.5765 8.30556C92.0234 7.87963 92.2468 7.2963 92.2468 6.55556C92.2468 5.81482 92.0234 5.23148 91.5765 4.80556C91.1483 4.36111 90.4966 4.13889 89.6215 4.13889H86.4098V8.91667H89.6215Z" fill="currentColor" />
  <path d="M109.185 20C106.522 20 104.437 19.3611 102.929 18.0833C101.439 16.787 100.648 14.9167 100.555 12.4722C100.536 11.9722 100.527 11.1574 100.527 10.0278C100.527 8.87963 100.536 8.0463 100.555 7.52778C100.648 5.12037 101.458 3.26852 102.985 1.97222C104.511 0.657407 106.578 0 109.185 0C110.823 0 112.294 0.277778 113.597 0.833334C114.901 1.37037 115.925 2.14815 116.669 3.16667C117.433 4.16667 117.824 5.34259 117.842 6.69445V6.75C117.842 6.89815 117.777 7.02778 117.647 7.13889C117.535 7.23148 117.405 7.27778 117.256 7.27778H113.486C113.244 7.27778 113.057 7.23148 112.927 7.13889C112.797 7.02778 112.685 6.83333 112.592 6.55556C112.331 5.61111 111.922 4.9537 111.363 4.58333C110.805 4.19444 110.069 4 109.157 4C106.96 4 105.824 5.22222 105.749 7.66667C105.731 8.16667 105.722 8.93519 105.722 9.97222C105.722 11.0093 105.731 11.7963 105.749 12.3333C105.824 14.7778 106.96 16 109.157 16C110.069 16 110.814 15.8056 111.391 15.4167C111.968 15.0093 112.368 14.3519 112.592 13.4444C112.666 13.1667 112.769 12.9815 112.899 12.8889C113.029 12.7778 113.225 12.7222 113.486 12.7222H117.256C117.424 12.7222 117.563 12.7778 117.675 12.8889C117.805 13 117.861 13.1389 117.842 13.3056C117.824 14.6574 117.433 15.8426 116.669 16.8611C115.925 17.8611 114.901 18.6389 113.597 19.1944C112.294 19.7315 110.823 20 109.185 20Z" fill="currentColor" />
  <path d="M122.036 19.7222C121.85 19.7222 121.682 19.6574 121.533 19.5278C121.403 19.3796 121.338 19.213 121.338 19.0278V0.972223C121.338 0.768519 121.403 0.601852 121.533 0.472223C121.682 0.342593 121.85 0.277778 122.036 0.277778H135.078C135.283 0.277778 135.451 0.342593 135.581 0.472223C135.711 0.601852 135.777 0.768519 135.777 0.972223V3.58333C135.777 3.76852 135.711 3.93518 135.581 4.08333C135.451 4.21296 135.283 4.27778 135.078 4.27778H126.169V8.02778H134.464C134.669 8.02778 134.836 8.10185 134.967 8.25C135.097 8.37963 135.162 8.5463 135.162 8.75V11.1667C135.162 11.3519 135.097 11.5185 134.967 11.6667C134.836 11.7963 134.669 11.8611 134.464 11.8611H126.169V15.7222H135.302C135.507 15.7222 135.674 15.787 135.804 15.9167C135.935 16.0463 136 16.213 136 16.4167V19.0278C136 19.213 135.935 19.3796 135.804 19.5278C135.674 19.6574 135.507 19.7222 135.302 19.7222H122.036Z" fill="currentColor" />
</svg>