<svg width="541" height="461" viewBox="0 0 541 461" fill="none" xmlns="http://www.w3.org/2000/svg">
<path d="M25.9534 284.885C25.9534 284.885 47.1343 371.712 132.961 417.451C218.788 463.19 321.714 450.122 405.445 441.705C489.175 433.288 542.9 376.363 537.715 304.819C532.53 233.276 465.126 223.419 414.16 149.55C363.303 75.6806 360.877 48.9902 278.139 12.2217C195.401 -24.5469 88.393 24.7362 46.5827 118.651C4.77251 212.566 25.9534 284.885 25.9534 284.885Z" fill="#0023A0"/>
<path opacity="0.7" d="M25.9534 284.885C25.9534 284.885 47.1343 371.712 132.961 417.451C218.788 463.19 321.714 450.122 405.445 441.705C489.175 433.288 542.9 376.363 537.715 304.819C532.53 233.276 465.126 223.419 414.16 149.55C363.303 75.6806 360.877 48.9902 278.139 12.2217C195.401 -24.5469 88.393 24.7362 46.5827 118.651C4.77251 212.566 25.9534 284.885 25.9534 284.885Z" fill="white"/>
<path d="M67.433 45.6678V433.509" stroke="#263238" stroke-width="0.5" stroke-miterlimit="10"/>
<path d="M67.433 30.7168V38.137" stroke="#263238" stroke-width="0.5" stroke-miterlimit="10"/>
<path d="M208.087 30.7168V433.509" stroke="#263238" stroke-width="0.5" stroke-miterlimit="10"/>
<path d="M348.742 30.7168V433.509" stroke="#263238" stroke-width="0.5" stroke-miterlimit="10"/>
<path d="M489.396 88.1947V433.509" stroke="#263238" stroke-width="0.5" stroke-miterlimit="10"/>
<path d="M489.396 30.7168V78.4494" stroke="#263238" stroke-width="0.5" stroke-miterlimit="10"/>
<path d="M415.153 85.7588H93.0265V277.354H415.153V85.7588Z" fill="#263238"/>
<path d="M413.278 91.1859H94.7917V271.928H413.278V91.1859Z" fill="white" stroke="#263238" stroke-width="0.5" stroke-miterlimit="10" stroke-linecap="round" stroke-linejoin="round"/>
<path d="M416.918 82.5472H89.2756V92.8469H416.918V82.5472Z" fill="#263238"/>
<path d="M257.62 82.3257C262.677 82.3257 266.776 78.2102 266.776 73.1335C266.776 68.0569 262.677 63.9414 257.62 63.9414C252.563 63.9414 248.463 68.0569 248.463 73.1335C248.463 78.2102 252.563 82.3257 257.62 82.3257Z" fill="white" stroke="#263238" stroke-width="0.5" stroke-miterlimit="10" stroke-linecap="round" stroke-linejoin="round"/>
<path d="M262.474 73.1331C262.474 75.791 260.267 78.006 257.62 78.006C254.972 78.006 252.766 75.791 252.766 73.1331C252.766 70.4751 254.972 68.2601 257.62 68.2601C260.267 68.2601 262.474 70.4751 262.474 73.1331Z" fill="#0023A0" stroke="#263238" stroke-width="0.5" stroke-miterlimit="10"/>
<path d="M152.598 208.579H113.214V168.488H180.177V208.579H160.099" stroke="#263238" stroke-width="0.5" stroke-miterlimit="10"/>
<path d="M219.45 227.849H166.056V259.855H219.45V227.849Z" stroke="#263238" stroke-width="0.5" stroke-miterlimit="10"/>
<path d="M278.47 168.488H285.199V208.579H218.237V168.488H272.071" stroke="#263238" stroke-width="0.5" stroke-miterlimit="10"/>
<path d="M223.863 110.012H302.408V149.992H201.027V110.012H216.361" stroke="#263238" stroke-width="0.5" stroke-miterlimit="10"/>
<path d="M389.67 168.488H322.707V208.579H389.67V168.488Z" stroke="#263238" stroke-width="0.5" stroke-miterlimit="10"/>
<path d="M195.511 129.726C195.511 129.726 159.989 134.709 139.139 164.944" stroke="#263238" stroke-width="0.5" stroke-miterlimit="10"/>
<path d="M172.786 212.898L177.529 226.742" stroke="#263238" stroke-width="0.5" stroke-miterlimit="10"/>
<path d="M221.325 211.679L217.023 224.637" stroke="#263238" stroke-width="0.5" stroke-miterlimit="10"/>
<path d="M172.345 222.201L177.53 226.741L178.853 220.539" stroke="#263238" stroke-width="0.5" stroke-miterlimit="10"/>
<path d="M214.927 220.539L216.913 225.745L222.318 222.533" stroke="#263238" stroke-width="0.5" stroke-miterlimit="10"/>
<path d="M140.132 158.741L139.139 164.833L145.979 160.624" stroke="#263238" stroke-width="0.5" stroke-miterlimit="10"/>
<path d="M287.185 187.537H320.721" stroke="#263238" stroke-width="0.5" stroke-miterlimit="10"/>
<path d="M313.661 183.329L321.052 187.537L314.323 191.746" stroke="#263238" stroke-width="0.5" stroke-miterlimit="10"/>
<path d="M181.28 187.537H214.817" stroke="#263238" stroke-width="0.5" stroke-miterlimit="10"/>
<path d="M207.756 183.329L215.148 187.537L208.418 191.746" stroke="#263238" stroke-width="0.5" stroke-miterlimit="10"/>
<path d="M251.442 153.204V163.504" stroke="#263238" stroke-width="0.5" stroke-miterlimit="10"/>
<path d="M255.634 156.416L251.442 163.836L247.25 156.969" stroke="#263238" stroke-width="0.5" stroke-miterlimit="10"/>
<path d="M320.39 199.608H288.177" stroke="#263238" stroke-width="0.5" stroke-miterlimit="10"/>
<path d="M294.907 195.4L287.847 199.608L294.355 203.817" stroke="#263238" stroke-width="0.5" stroke-miterlimit="10"/>
<path d="M221.987 122.417H282.662" stroke="#263238" stroke-width="0.5" stroke-miterlimit="10"/>
<path d="M221.987 128.286H282.662" stroke="#263238" stroke-width="0.5" stroke-miterlimit="10"/>
<path d="M221.987 134.156H282.662" stroke="#263238" stroke-width="0.5" stroke-miterlimit="10"/>
<path d="M119.502 183.329H173.999" stroke="#263238" stroke-width="0.5" stroke-miterlimit="10"/>
<path d="M119.502 189.198H173.999" stroke="#263238" stroke-width="0.5" stroke-miterlimit="10"/>
<path d="M119.502 194.957H173.999" stroke="#263238" stroke-width="0.5" stroke-miterlimit="10"/>
<path d="M225.297 183.329H279.794" stroke="#263238" stroke-width="0.5" stroke-miterlimit="10"/>
<path d="M225.297 189.198H279.794" stroke="#263238" stroke-width="0.5" stroke-miterlimit="10"/>
<path d="M225.297 194.957H279.794" stroke="#263238" stroke-width="0.5" stroke-miterlimit="10"/>
<path d="M327.12 183.329H381.616" stroke="#263238" stroke-width="0.5" stroke-miterlimit="10"/>
<path d="M327.12 189.198H381.616" stroke="#263238" stroke-width="0.5" stroke-miterlimit="10"/>
<path d="M327.12 194.957H381.616" stroke="#263238" stroke-width="0.5" stroke-miterlimit="10"/>
<path d="M173.006 238.703H214.596" stroke="#263238" stroke-width="0.5" stroke-miterlimit="10"/>
<path d="M173.006 244.461H214.596" stroke="#263238" stroke-width="0.5" stroke-miterlimit="10"/>
<path d="M173.006 250.331H214.596" stroke="#263238" stroke-width="0.5" stroke-miterlimit="10"/>
<path d="M357.457 127.511C357.236 127.511 357.126 127.4 357.015 127.289C356.905 127.068 356.905 126.736 357.236 126.514L357.677 126.293L357.567 126.403C357.346 126.514 357.015 126.514 356.795 126.182C356.684 125.96 356.684 125.628 357.015 125.407L359.222 123.967L357.346 125.074C357.126 125.185 356.795 125.185 356.574 124.853C356.464 124.631 356.464 124.299 356.795 124.078L360.766 121.53L357.015 123.745C356.795 123.856 356.464 123.856 356.243 123.524C356.133 123.302 356.133 122.97 356.353 122.749L362.531 118.651L356.574 122.084C356.353 122.195 356.023 122.195 355.802 121.863C355.692 121.641 355.692 121.309 355.912 121.087L365.179 114.442L355.912 119.758C355.692 119.869 355.361 119.869 355.14 119.537C355.03 119.315 355.03 118.983 355.25 118.762L361.869 114.11L355.361 117.876C355.14 117.986 354.809 117.986 354.588 117.654C354.478 117.433 354.478 117.1 354.699 116.879L358.449 114.332L354.919 116.436C354.699 116.547 354.368 116.547 354.147 116.214C354.037 115.993 354.037 115.661 354.257 115.439L356.684 113.778L354.478 114.996C354.257 115.107 353.926 115.107 353.706 114.775C353.596 114.553 353.596 114.221 353.816 113.999L360.325 109.237L353.926 112.892C353.706 113.003 353.375 113.003 353.154 112.67C353.044 112.449 353.044 112.117 353.265 111.895L359.001 107.465L353.375 110.788C353.154 110.898 352.823 110.898 352.603 110.566C352.492 110.345 352.492 110.012 352.713 109.791L355.471 107.687L352.934 109.237C352.713 109.348 352.382 109.348 352.161 109.016C352.051 108.794 352.051 108.462 352.272 108.241L354.588 106.469L352.492 107.687C352.272 107.798 351.941 107.798 351.72 107.465C351.61 107.244 351.61 106.912 351.83 106.69L352.934 105.804L352.051 106.358C351.83 106.469 351.499 106.469 351.389 106.247C351.169 106.026 351.169 105.804 351.389 105.583L353.154 103.368L351.61 104.254C351.389 104.364 351.169 104.364 351.058 104.254C350.838 104.143 350.838 103.921 350.838 103.7L350.948 103.035C350.727 103.035 350.617 102.925 350.507 102.814C350.396 102.592 350.396 102.26 350.727 102.039L351.5 101.596C351.72 101.485 351.941 101.485 352.051 101.596C352.272 101.706 352.272 101.928 352.272 102.149L352.161 102.703L355.03 101.042C355.25 100.931 355.581 100.931 355.692 101.153C355.912 101.374 355.912 101.596 355.692 101.817L353.926 104.032L359.111 101.042C359.332 100.931 359.663 100.931 359.884 101.263C359.994 101.485 359.994 101.817 359.773 102.039L358.67 102.925L361.428 101.374C361.649 101.263 361.98 101.263 362.2 101.596C362.311 101.817 362.311 102.149 362.09 102.371L359.773 104.143L363.524 101.928C363.745 101.817 364.076 101.817 364.296 102.149C364.407 102.371 364.407 102.703 364.186 102.925L361.428 105.029L365.841 103.035C366.061 102.925 366.392 102.925 366.613 103.257C366.723 103.478 366.723 103.811 366.503 104.032L360.766 108.462L368.268 104.143C368.488 104.032 368.819 104.032 369.04 104.364C369.15 104.586 369.15 104.918 368.93 105.14L362.421 109.902L370.364 105.25C370.584 105.14 370.915 105.14 371.136 105.472C371.246 105.693 371.246 106.026 371.026 106.247L368.599 107.908L371.688 106.136C371.908 106.026 372.239 106.026 372.46 106.358C372.57 106.579 372.57 106.912 372.349 107.133L368.599 109.68L373.011 107.133C373.232 107.022 373.563 107.022 373.784 107.355C373.894 107.576 373.894 107.908 373.673 108.13L367.054 112.781L374.556 108.462C374.776 108.351 375.107 108.351 375.328 108.684C375.438 108.905 375.438 109.237 375.218 109.459L365.951 116.104L376.211 110.123C376.431 110.012 376.762 110.012 376.983 110.345C377.093 110.566 377.093 110.898 376.872 111.12L370.695 115.218L377.424 111.341C377.645 111.231 377.976 111.231 378.196 111.563C378.307 111.784 378.307 112.117 377.976 112.338L374.004 114.885L378.196 112.449C378.417 112.338 378.748 112.338 378.968 112.67C379.079 112.892 379.079 113.224 378.748 113.446L376.542 114.885L378.858 113.556C379.079 113.446 379.41 113.446 379.63 113.778C379.741 113.999 379.741 114.332 379.41 114.553L378.968 114.775L379.41 114.553C379.63 114.442 379.961 114.442 380.182 114.775C380.292 114.996 380.292 115.328 380.072 115.55L373.673 120.091L380.292 116.214C380.513 116.104 380.844 116.104 381.064 116.436C381.175 116.657 381.175 116.99 380.954 117.211L380.844 117.322C381.065 117.211 381.395 117.211 381.616 117.543C381.726 117.765 381.726 118.097 381.506 118.319L380.292 119.205L381.506 118.54C381.726 118.429 382.057 118.429 382.168 118.651C382.388 118.872 382.388 119.205 382.168 119.315L380.072 121.752L382.057 120.534C382.278 120.423 382.499 120.423 382.719 120.644C382.94 120.755 382.94 121.087 382.83 121.309L382.609 121.863C382.83 121.863 383.05 121.973 383.161 122.084C383.271 122.306 383.271 122.638 382.94 122.859L381.726 123.524C381.506 123.635 381.285 123.635 381.064 123.413C380.844 123.302 380.844 122.97 380.954 122.749L381.175 122.306L377.755 124.299C377.534 124.41 377.203 124.41 377.093 124.188C376.872 123.967 376.872 123.635 377.093 123.524L379.189 121.087L371.136 125.739C370.915 125.85 370.584 125.85 370.364 125.517C370.253 125.296 370.253 124.964 370.474 124.742L371.688 123.856L367.165 126.514C366.944 126.625 366.613 126.625 366.392 126.293C366.282 126.071 366.282 125.739 366.503 125.517L366.613 125.407L363.524 127.179C363.303 127.289 362.973 127.289 362.752 126.957C362.642 126.736 362.642 126.403 362.862 126.182L369.261 121.641L357.898 128.286C357.677 127.511 357.567 127.511 357.457 127.511Z" fill="#0023A0"/>
<path d="M340.468 143.015C335.504 138.696 332.415 132.494 332.415 125.739C332.415 112.67 343.667 102.038 357.677 102.038C371.577 102.038 382.94 112.67 382.94 125.739C382.94 138.807 371.688 149.439 357.677 149.439C353.927 149.439 350.286 148.664 347.087 147.224" stroke="#263238" stroke-width="0.5" stroke-miterlimit="10"/>
<path d="M310.241 120.645H326.127" stroke="#263238" stroke-width="0.5" stroke-miterlimit="10"/>
<path d="M310.241 126.182H326.127" stroke="#263238" stroke-width="0.5" stroke-miterlimit="10"/>
<path d="M310.241 131.719H326.127" stroke="#263238" stroke-width="0.5" stroke-miterlimit="10"/>
<path d="M117.848 214.669H145.868" stroke="#263238" stroke-width="0.5" stroke-miterlimit="10"/>
<path d="M117.848 220.207H145.868" stroke="#263238" stroke-width="0.5" stroke-miterlimit="10"/>
<path d="M112.001 143.015H140.022" stroke="#263238" stroke-width="0.5" stroke-miterlimit="10"/>
<path d="M117.848 225.634H145.868" stroke="#263238" stroke-width="0.5" stroke-miterlimit="10"/>
<path d="M117.848 237.263H145.868" stroke="#263238" stroke-width="0.5" stroke-miterlimit="10"/>
<path d="M117.848 242.8H145.868" stroke="#263238" stroke-width="0.5" stroke-miterlimit="10"/>
<path d="M117.848 248.227H145.868" stroke="#263238" stroke-width="0.5" stroke-miterlimit="10"/>
<path d="M350.948 102.703L357.788 127.511L382.719 121.752" stroke="#263238" stroke-width="0.5" stroke-miterlimit="10"/>
<path d="M112.332 109.016V136.592H156.348" stroke="#263238" stroke-width="0.5" stroke-miterlimit="10"/>
<path d="M126.011 112.781H116.855V136.592H126.011V112.781Z" fill="#0023A0" stroke="#263238" stroke-width="0.5" stroke-miterlimit="10"/>
<path d="M149.288 118.208H140.132V136.593H149.288V118.208Z" fill="#0023A0" stroke="#263238" stroke-width="0.5" stroke-miterlimit="10"/>
<path d="M137.705 105.361H128.549V136.592H137.705V105.361Z" fill="#0023A0" stroke="#263238" stroke-width="0.5" stroke-miterlimit="10"/>
<path d="M59.269 286.546C59.269 286.546 59.269 281.895 52.7603 275.471C46.2516 268.937 42.1698 265.283 42.1698 265.283C42.1698 265.283 38.9706 275.914 44.9278 282.449C50.8849 288.983 59.269 294.963 59.269 294.963V286.546Z" fill="#0023A0"/>
<path d="M49.8922 315.452C49.8922 315.452 49.8922 310.801 43.3835 304.377C36.8747 297.843 32.793 294.188 32.793 294.188C32.793 294.188 29.5938 304.82 35.5509 311.355C41.5081 317.889 49.8922 323.869 49.8922 323.869V315.452Z" fill="#0023A0"/>
<path d="M58.9381 294.41C58.9381 294.41 59.3794 289.758 66.55 283.999C73.6103 278.24 78.1333 275.029 78.1333 275.029C78.1333 275.029 80.2294 285.993 73.6103 291.752C66.9913 297.511 58.0556 302.716 58.0556 302.716L58.9381 294.41Z" fill="#0023A0"/>
<path d="M47.5756 328.52C47.5756 328.52 48.5684 323.979 56.1803 318.996C63.7922 314.012 68.6461 311.243 68.6461 311.243C68.6461 311.243 69.5287 322.318 62.3581 327.413C55.1874 332.507 45.8105 336.605 45.8105 336.605L47.5756 328.52Z" fill="#0023A0"/>
<path d="M49.6718 365.731C49.6718 365.731 49.6718 361.08 56.1805 354.656C62.6892 348.122 66.771 344.468 66.771 344.468C66.771 344.468 69.9702 355.099 64.013 361.634C58.0559 368.168 49.6718 374.148 49.6718 374.148V365.731Z" fill="#0023A0"/>
<path d="M49.5612 374.813C49.5612 374.813 50.2231 370.273 44.7072 362.852C39.1913 355.432 35.6612 351.224 35.6612 351.224C35.6612 351.224 30.9175 361.302 35.9921 368.611C40.9564 375.921 48.3477 383.009 48.3477 383.009L49.5612 374.813Z" fill="#0023A0"/>
<path d="M43.2732 401.725C43.2732 401.725 43.2732 397.073 49.7819 390.65C56.2906 384.116 60.3724 380.461 60.3724 380.461C60.3724 380.461 63.5716 391.093 57.6144 397.627C51.6573 404.161 43.2732 410.142 43.2732 410.142V401.725Z" fill="#0023A0"/>
<path d="M47.5756 426.2C47.5756 426.2 46.3622 421.77 50.9955 413.797C55.6288 405.933 58.7177 401.282 58.7177 401.282C58.7177 401.282 64.5645 410.806 60.3724 418.559C56.1804 426.311 49.6717 434.285 49.6717 434.285L47.5756 426.2Z" fill="#0023A0"/>
<path d="M59.931 285.329C59.6001 290.312 58.9382 295.407 58.1659 299.726C55.6286 312.905 49.2303 321.543 46.693 333.504C44.1557 345.465 51.4366 360.859 49.4509 376.253C47.4652 391.647 41.508 400.175 43.2731 410.364C44.9279 420.663 53.8636 448.351 53.8636 448.351" stroke="#263238" stroke-width="0.5" stroke-miterlimit="10" stroke-linecap="round" stroke-linejoin="round"/>
<path d="M58.8277 297.51L65.7777 292.083" stroke="#263238" stroke-width="0.5" stroke-miterlimit="10" stroke-linecap="round" stroke-linejoin="round"/>
<path d="M59.1589 291.309L56.2906 286.104" stroke="#263238" stroke-width="0.5" stroke-miterlimit="10" stroke-linecap="round" stroke-linejoin="round"/>
<path d="M47.024 332.84C47.024 332.84 52.8708 328.41 58.8279 324.091" stroke="#263238" stroke-width="0.5" stroke-miterlimit="10" stroke-linecap="round" stroke-linejoin="round"/>
<path d="M49.8922 323.758C49.8922 323.758 45.0383 314.234 39.5224 307.921" stroke="#263238" stroke-width="0.5" stroke-miterlimit="10" stroke-linecap="round" stroke-linejoin="round"/>
<path d="M49.892 372.377C49.892 372.377 54.415 363.406 62.3579 355.654" stroke="#263238" stroke-width="0.5" stroke-miterlimit="10" stroke-linecap="round" stroke-linejoin="round"/>
<path d="M48.789 378.8C48.789 378.8 45.9207 371.823 42.5009 366.728C39.081 361.745 38.6398 361.08 38.6398 361.08" stroke="#263238" stroke-width="0.5" stroke-miterlimit="10" stroke-linecap="round" stroke-linejoin="round"/>
<path d="M43.2732 410.252C43.2732 410.252 45.5899 404.272 48.5684 399.62C51.4367 394.858 55.4081 390.65 55.4081 390.65" stroke="#263238" stroke-width="0.5" stroke-miterlimit="10" stroke-linecap="round" stroke-linejoin="round"/>
<path d="M49.6716 434.174C49.6716 434.174 49.0097 428.637 51.4367 423.874C53.8637 419.112 56.6216 413.021 57.7248 410.584" stroke="#263238" stroke-width="0.5" stroke-miterlimit="10" stroke-linecap="round" stroke-linejoin="round"/>
<path d="M17.0177 348.344C17.0177 348.344 16.4662 345.465 19.886 340.703C23.3058 335.94 25.4018 333.172 25.4018 333.172C25.4018 333.172 28.601 339.484 25.5122 344.247C22.4233 349.009 17.9003 353.66 17.9003 353.66L17.0177 348.344Z" fill="#0023A0"/>
<path d="M26.0638 365.399C26.0638 365.399 25.5122 362.52 28.9321 357.758C32.2416 352.995 34.4479 350.227 34.4479 350.227C34.4479 350.227 37.6471 356.539 34.5583 361.302C31.4694 366.064 26.9464 370.715 26.9464 370.715L26.0638 365.399Z" fill="#0023A0"/>
<path d="M18.1208 353.217C18.1208 353.217 17.3486 350.338 12.274 347.569C7.19942 344.69 4.00022 343.139 4.00022 343.139C4.00022 343.139 3.8899 350.227 8.63354 353.107C13.3772 355.986 19.5549 358.201 19.5549 358.201L18.1208 353.217Z" fill="#0023A0"/>
<path d="M28.9321 373.373C28.9321 373.373 27.8289 370.605 22.5337 368.39C17.2384 366.064 13.8186 364.957 13.8186 364.957C13.8186 364.957 14.4805 372.044 19.5551 374.37C24.6297 376.807 30.9178 378.357 30.9178 378.357L28.9321 373.373Z" fill="#0023A0"/>
<path d="M31.5795 396.963C31.5795 396.963 31.0279 394.083 26.2842 390.65C21.5406 387.328 18.562 385.445 18.562 385.445C18.562 385.445 17.6795 392.422 22.2025 395.855C26.6152 399.289 32.462 402.168 32.462 402.168L31.5795 396.963Z" fill="#0023A0"/>
<path d="M32.6824 402.722C32.6824 402.722 31.7999 399.953 34.4475 394.748C37.0951 389.543 38.8602 386.442 38.8602 386.442C38.8602 386.442 42.9419 392.201 40.5149 397.406C38.1983 402.501 34.3372 407.817 34.3372 407.817L32.6824 402.722Z" fill="#0023A0"/>
<path d="M40.7358 426.089C40.7358 426.089 41.0668 423.21 45.5898 419.555C50.1128 415.901 52.981 413.907 52.981 413.907C52.981 413.907 54.3048 420.884 50.0025 424.539C45.7001 428.194 40.0739 431.405 40.0739 431.405L40.7358 426.089Z" fill="#0023A0"/>
<path d="M39.5223 418.891C39.5223 418.891 38.9707 416.012 34.2271 412.578C29.4835 409.256 26.5049 407.373 26.5049 407.373C26.5049 407.373 25.6224 414.35 30.1454 417.784C34.5581 421.217 40.4049 424.096 40.4049 424.096L39.5223 418.891Z" fill="#0023A0"/>
<path d="M39.5225 434.618C39.5225 434.618 39.7431 431.628 35.9924 427.198C32.2416 422.768 29.8146 420.221 29.8146 420.221C29.8146 420.221 27.167 426.755 30.6971 431.185C34.117 435.615 39.0812 439.934 39.0812 439.934L39.5225 434.618Z" fill="#0023A0"/>
<path d="M16.5766 347.68C17.3488 350.781 18.2314 353.882 19.2242 356.54C22.2028 364.514 27.1671 369.166 30.0353 376.475C32.9035 383.674 30.0353 394.195 32.9035 403.608C35.7718 413.022 40.4051 417.673 40.5154 424.318C40.5154 430.963 37.9781 449.348 37.9781 449.348" stroke="#263238" stroke-width="0.5" stroke-miterlimit="10" stroke-linecap="round" stroke-linejoin="round"/>
<path d="M18.5622 355.21L13.5979 352.552" stroke="#263238" stroke-width="0.5" stroke-miterlimit="10" stroke-linecap="round" stroke-linejoin="round"/>
<path d="M17.6795 351.334L18.893 347.79" stroke="#263238" stroke-width="0.5" stroke-miterlimit="10" stroke-linecap="round" stroke-linejoin="round"/>
<path d="M29.7042 376.031C29.7042 376.031 25.6224 373.927 21.3201 371.823" stroke="#263238" stroke-width="0.5" stroke-miterlimit="10" stroke-linecap="round" stroke-linejoin="round"/>
<path d="M26.9462 370.715C26.9462 370.715 28.9319 364.181 31.6899 359.64" stroke="#263238" stroke-width="0.5" stroke-miterlimit="10" stroke-linecap="round" stroke-linejoin="round"/>
<path d="M32.131 401.171C32.131 401.171 28.2699 396.077 22.5334 392.09" stroke="#263238" stroke-width="0.5" stroke-miterlimit="10" stroke-linecap="round" stroke-linejoin="round"/>
<path d="M33.5652 405.047C33.5652 405.047 34.6684 400.396 36.2128 396.852C37.7572 393.308 37.9779 392.865 37.9779 392.865" stroke="#263238" stroke-width="0.5" stroke-miterlimit="10" stroke-linecap="round" stroke-linejoin="round"/>
<path d="M40.2946 429.191C40.2946 429.191 43.6041 425.204 45.5898 423.653C47.5755 422.103 49.0097 420.663 49.0097 420.663" stroke="#263238" stroke-width="0.5" stroke-miterlimit="10" stroke-linecap="round" stroke-linejoin="round"/>
<path d="M40.5153 424.207C40.5153 424.207 38.4192 420.774 36.1026 418.116C33.7859 415.458 30.9177 413.243 30.9177 413.243" stroke="#263238" stroke-width="0.5" stroke-miterlimit="10" stroke-linecap="round" stroke-linejoin="round"/>
<path d="M39.081 439.933C39.081 439.933 38.8604 436.389 36.8747 433.731C34.8889 431.073 32.462 427.418 31.4691 426.089" stroke="#263238" stroke-width="0.5" stroke-miterlimit="10" stroke-linecap="round" stroke-linejoin="round"/>
<path d="M514.767 152.632C519.77 131.005 506.361 109.401 484.818 104.378C463.274 99.3561 441.754 112.817 436.751 134.445C431.749 156.073 445.158 177.677 466.701 182.699C488.245 187.722 509.765 174.26 514.767 152.632Z" fill="#263238" stroke="#263238" stroke-width="0.5" stroke-miterlimit="10"/>
<path d="M488.978 174.967C506.257 167.62 514.331 147.602 507.013 130.255C499.694 112.909 479.754 104.802 462.475 112.149C445.196 119.496 437.121 139.515 444.44 156.862C451.758 174.208 471.698 182.315 488.978 174.967Z" fill="white" stroke="#263238" stroke-width="0.5" stroke-miterlimit="10"/>
<path d="M486.197 121.642L475.717 143.57H490.72" stroke="#263238" stroke-width="0.5" stroke-miterlimit="10"/>
<path d="M479.578 143.57C479.578 145.674 477.923 147.446 475.717 147.446C473.621 147.446 471.855 145.785 471.855 143.57C471.855 141.466 473.51 139.694 475.717 139.694C477.813 139.694 479.578 141.466 479.578 143.57Z" fill="#0023A0" stroke="#263238" stroke-width="0.5" stroke-miterlimit="10"/>
<path d="M259.385 247.341L254.31 239.81C254.31 239.81 255.303 227.738 254.2 225.855C253.096 223.973 234.453 221.758 233.35 223.198C232.247 224.637 236.108 225.855 236.108 225.855C236.108 225.855 233.46 227.074 233.791 228.403C234.232 230.396 237.542 230.618 237.542 230.618C237.542 230.618 234.894 232.39 235.225 233.608C235.446 234.494 238.204 235.269 238.204 235.269C238.204 235.269 235.446 236.487 237.652 238.038C239.858 239.588 241.734 241.25 241.734 241.25C241.734 241.25 240.189 244.572 244.381 247.451C248.573 250.331 255.744 255.647 255.744 255.647L259.385 247.341Z" fill="white" stroke="#263238" stroke-width="0.5" stroke-miterlimit="10" stroke-linecap="round" stroke-linejoin="round"/>
<path d="M234.012 218.103L229.93 217.771V219.1L233.239 220.982C233.129 220.982 233.901 217.771 234.012 218.103Z" fill="#263238" stroke="#263238" stroke-width="0.5" stroke-miterlimit="10" stroke-linecap="round" stroke-linejoin="round"/>
<path d="M250.118 226.519C249.898 226.519 249.787 226.519 249.567 226.408L233.24 221.203C232.357 220.982 231.916 219.985 232.137 219.099C232.357 218.213 233.35 217.77 234.233 217.992L250.56 223.197C251.442 223.418 251.883 224.415 251.663 225.301C251.442 226.076 250.78 226.519 250.118 226.519Z" fill="white" stroke="#263238" stroke-width="0.5" stroke-miterlimit="10" stroke-linecap="round" stroke-linejoin="round"/>
<path d="M258.612 229.731C258.392 229.731 258.171 229.731 257.84 229.62L249.456 226.962C248.353 226.63 247.691 225.412 248.022 224.194C248.353 223.086 249.566 222.422 250.78 222.754L259.164 225.412C260.267 225.744 260.929 226.962 260.598 228.181C260.267 229.067 259.495 229.731 258.612 229.731Z" fill="#263238" stroke="#263238" stroke-width="0.5" stroke-miterlimit="10" stroke-linecap="round" stroke-linejoin="round"/>
<path d="M251.883 232.168C251.883 232.168 250.339 227.849 249.236 225.634C248.133 223.529 245.816 221.647 244.933 219.432C244.051 217.217 241.734 220.65 242.617 222.2C243.499 223.862 245.485 226.187 245.485 227.295C245.485 228.402 245.816 229.178 244.602 232.832C243.389 236.376 242.617 240.585 245.485 243.464" fill="white"/>
<path d="M251.883 232.168C251.883 232.168 250.339 227.849 249.236 225.634C248.133 223.529 245.816 221.647 244.933 219.432C244.051 217.217 241.734 220.65 242.617 222.2C243.499 223.862 245.485 226.187 245.485 227.295C245.485 228.402 245.816 229.178 244.602 232.832C243.389 236.376 242.617 240.585 245.485 243.464" stroke="#263238" stroke-width="0.5" stroke-miterlimit="10" stroke-linecap="round" stroke-linejoin="round"/>
<path d="M236.108 225.855L245.485 227.517" stroke="#263238" stroke-width="0.5" stroke-miterlimit="10" stroke-linecap="round" stroke-linejoin="round"/>
<path d="M237.542 230.617C238.645 230.285 244.492 233.053 244.492 233.053" stroke="#263238" stroke-width="0.5" stroke-miterlimit="10" stroke-linecap="round" stroke-linejoin="round"/>
<path d="M238.094 235.269L242.948 236.82" stroke="#263238" stroke-width="0.5" stroke-miterlimit="10" stroke-linecap="round" stroke-linejoin="round"/>
<path d="M324.693 232.833C324.693 232.833 321.935 231.171 320.721 235.601C319.508 240.031 315.867 247.784 314.323 249.445C312.778 251.106 297.113 266.611 297.113 266.611C297.113 266.611 290.384 261.295 288.84 263.289C287.295 265.282 286.192 265.504 286.192 265.504L259.385 244.351L249.456 259.412C249.456 259.412 285.861 292.858 288.95 293.855C291.928 294.852 294.135 294.52 295.238 293.966C296.341 293.412 316.309 278.24 316.309 278.24C316.309 278.24 328.554 238.702 329.547 237.373C330.429 236.155 324.693 232.833 324.693 232.833Z" fill="#0023A0" stroke="#263238" stroke-width="0.5" stroke-miterlimit="10" stroke-linecap="round" stroke-linejoin="round"/>
<path d="M288.729 266.832C288.729 266.832 294.135 273.145 294.135 281.119L288.729 266.832Z" fill="#0023A0"/>
<path d="M288.729 266.832C288.729 266.832 294.135 273.145 294.135 281.119" stroke="#263238" stroke-width="0.5" stroke-miterlimit="10" stroke-linecap="round" stroke-linejoin="round"/>
<path d="M297.444 269.38C297.444 269.38 299.099 273.588 296.562 282.78L297.444 269.38Z" fill="#0023A0"/>
<path d="M297.444 269.38C297.444 269.38 299.099 273.588 296.562 282.78" stroke="#263238" stroke-width="0.5" stroke-miterlimit="10" stroke-linecap="round" stroke-linejoin="round"/>
<path d="M336.607 184.103C336.607 184.103 324.803 176.351 326.237 168.931C327.671 161.621 354.147 155.641 369.371 160.625C384.595 165.608 387.684 188.533 385.698 202.598C383.712 216.774 382.499 249.002 382.499 249.002L330.76 250.553C330.76 250.553 335.614 212.787 336.607 200.827C337.489 188.976 336.607 184.103 336.607 184.103Z" fill="#263238" stroke="#263238" stroke-width="0.5" stroke-miterlimit="10" stroke-linecap="round" stroke-linejoin="round"/>
<path d="M310.131 392.089C311.234 403.385 313.33 453.111 314.543 460.421H368.378C368.268 451.893 368.158 394.636 369.371 389.985C370.915 384.115 373.011 364.623 370.695 353.438C368.378 342.252 365.4 336.825 365.4 336.825H309.579L309.689 341.477C309.689 341.366 308.586 376.03 310.131 392.089Z" fill="#263238" stroke="#263238" stroke-width="0.5" stroke-miterlimit="10" stroke-linecap="round" stroke-linejoin="round"/>
<path d="M322.045 358.2C324.251 359.751 326.458 360.858 326.458 362.963C327.561 382.676 331.863 437.939 333.408 457.874" stroke="#4C4C4C" stroke-width="0.5" stroke-miterlimit="10" stroke-linecap="round" stroke-linejoin="round"/>
<path d="M338.041 232.168L365.289 233.165C365.289 233.165 343.336 267.054 343.556 285.66C343.777 304.265 347.417 342.806 347.417 342.806C347.417 342.806 335.393 352.33 323.037 350.558C321.714 350.337 320.941 339.151 320.941 339.151C320.941 339.151 320.169 350.004 319.176 349.783C312.226 348.565 309.468 341.366 309.468 341.366L310.903 304.155C310.903 304.155 310.903 279.679 313.66 272.702C316.308 265.725 334.731 234.494 334.731 234.494L338.041 232.168Z" fill="white" stroke="#263238" stroke-width="0.5" stroke-miterlimit="10" stroke-linecap="round" stroke-linejoin="round"/>
<path d="M337.048 253.653C337.048 253.653 328.664 271.262 325.575 281.561C322.486 291.861 321.162 339.04 321.162 339.04" stroke="#263238" stroke-width="0.5" stroke-miterlimit="10" stroke-linecap="round" stroke-linejoin="round"/>
<path d="M362.09 232.833C362.09 232.833 342.895 261.517 339.254 271.817C335.614 282.116 333.076 321.653 333.628 338.376C334.069 355.099 339.365 373.594 339.365 373.594C339.365 373.594 361.318 378.024 385.808 370.383C385.808 370.383 379.079 340.702 375.88 330.956C372.68 321.21 371.357 311.354 371.357 311.354C371.357 311.354 393.31 241.028 393.199 239.921C393.199 238.813 392.758 237.706 390.552 237.041C388.345 236.377 362.09 232.833 362.09 232.833Z" fill="#0023A0" stroke="#263238" stroke-width="0.5" stroke-miterlimit="10" stroke-linecap="round" stroke-linejoin="round"/>
<path d="M344.55 342.474L372.901 340.259L373.342 344.8L361.208 346.35" fill="#0023A0"/>
<path d="M344.55 342.474L372.901 340.259L373.342 344.8L361.208 346.35" stroke="#263238" stroke-width="0.5" stroke-miterlimit="10" stroke-linecap="round" stroke-linejoin="round"/>
<path d="M337.82 235.823C337.82 235.823 314.985 276.247 314.543 283.556C313.992 290.865 310.682 324.533 308.807 335.165C306.931 345.797 298.768 366.507 298.768 366.507C298.768 366.507 296.672 357.425 297.334 353.438C297.996 349.452 306.711 326.527 307.704 321.432C308.696 316.338 309.91 298.064 309.689 289.979C309.469 282.006 308.917 276.136 310.572 270.266C312.227 264.397 324.693 232.944 324.693 232.944L342.785 232.058L337.82 235.823Z" fill="#0023A0" stroke="#263238" stroke-width="0.5" stroke-miterlimit="10" stroke-linecap="round" stroke-linejoin="round"/>
<path d="M332.856 232.391L329.105 249.889L338.813 242.247L332.856 232.391Z" fill="white" stroke="#263238" stroke-width="0.5" stroke-miterlimit="10" stroke-linecap="round" stroke-linejoin="round"/>
<path d="M344.55 223.973L332.856 232.39L337.269 243.908L337.048 253.654L350.176 234.051L344.55 223.973Z" fill="white" stroke="#263238" stroke-width="0.5" stroke-miterlimit="10" stroke-linecap="round" stroke-linejoin="round"/>
<path d="M343.777 219.433C343.777 219.433 341.571 235.713 340.909 240.143C340.247 244.462 337.048 253.765 337.048 253.765C337.048 253.765 357.788 233.608 358.781 232.058C359.773 230.397 363.414 214.338 363.414 214.338C363.414 214.338 350.066 219.211 343.777 219.433Z" fill="white" stroke="#263238" stroke-width="0.5" stroke-miterlimit="10" stroke-linecap="round" stroke-linejoin="round"/>
<path d="M343.226 223.973C346.094 225.745 348.19 225.745 351.499 225.191C354.809 224.637 359.222 221.647 362.2 219.21C362.862 216.331 363.303 214.227 363.303 214.227C363.303 214.227 349.955 219.211 343.777 219.432C343.777 219.432 343.557 221.315 343.226 223.973Z" fill="#263238" stroke="#263238" stroke-width="0.5" stroke-miterlimit="10" stroke-linecap="round" stroke-linejoin="round"/>
<path d="M350.506 169.927L335.172 181.999C335.172 181.999 333.628 193.738 333.076 201.823C332.525 209.908 335.945 215.777 340.357 219.764C344.77 223.641 347.197 223.862 351.499 223.198C355.802 222.533 362.09 217.439 364.517 215.224C366.833 213.009 371.246 206.364 371.246 206.364C371.246 206.364 374.776 207.028 375.769 205.367C376.762 203.706 377.093 202.931 377.093 202.931C377.093 202.931 362.531 194.735 356.574 184.325C350.617 174.025 350.506 169.927 350.506 169.927Z" fill="white" stroke="#263238" stroke-width="0.5" stroke-miterlimit="10" stroke-linecap="round" stroke-linejoin="round"/>
<path d="M345.653 191.412C345.653 191.412 345.211 194.624 344.218 196.285C343.226 197.947 339.144 198.833 341.35 200.715C343.556 202.598 347.087 202.487 347.087 202.487" stroke="#263238" stroke-width="0.5" stroke-miterlimit="10" stroke-linecap="round" stroke-linejoin="round"/>
<path d="M341.24 205.699C341.24 205.699 349.404 209.243 354.699 204.481" stroke="#263238" stroke-width="0.5" stroke-miterlimit="10" stroke-linecap="round" stroke-linejoin="round"/>
<path d="M343.998 206.917C343.998 206.917 345.211 211.458 347.859 210.572C350.507 209.686 352.823 206.142 352.823 206.142C352.823 206.142 349.403 206.807 343.998 206.917Z" stroke="#263238" stroke-width="0.5" stroke-miterlimit="10" stroke-linecap="round" stroke-linejoin="round"/>
<path d="M356.023 193.628C356.023 194.846 355.581 195.843 354.92 195.843C354.258 195.843 353.706 194.957 353.596 193.738C353.596 192.52 354.037 191.523 354.699 191.523C355.361 191.523 356.023 192.409 356.023 193.628Z" fill="#263238"/>
<path d="M343.115 192.077C343.115 193.295 342.674 194.292 342.012 194.292C341.35 194.292 340.799 193.406 340.688 192.188C340.688 190.969 341.13 189.973 341.792 189.973C342.564 189.862 343.115 190.859 343.115 192.077Z" fill="#263238"/>
<path d="M338.813 187.093C338.813 187.093 341.681 183.992 344.991 187.204" stroke="#263238" stroke-width="0.5" stroke-miterlimit="10" stroke-linecap="round" stroke-linejoin="round"/>
<path d="M351.279 187.757C351.279 187.757 357.456 185.431 359.994 190.747" stroke="#263238" stroke-width="0.5" stroke-miterlimit="10" stroke-linecap="round" stroke-linejoin="round"/>
<path d="M347.859 237.152L337.048 253.653L352.934 245.126L347.859 237.152Z" fill="white" stroke="#263238" stroke-width="0.5" stroke-miterlimit="10" stroke-linecap="round" stroke-linejoin="round"/>
<path d="M366.061 222.754L347.859 237.152L353.154 252.103L370.584 231.836L366.061 222.754Z" fill="white" stroke="#263238" stroke-width="0.5" stroke-miterlimit="10" stroke-linecap="round" stroke-linejoin="round"/>
<path d="M343.888 307.81C343.888 307.81 340.909 307.146 336.938 304.709C332.856 302.273 328.554 303.159 324.913 303.27C321.273 303.38 318.735 304.156 319.177 305.595C319.618 307.035 323.258 306.924 324.251 306.924C325.354 306.924 327.23 308.696 327.23 308.696L318.184 310.911C318.184 310.911 315.316 312.794 317.522 314.898C319.728 317.002 320.17 316.559 320.17 316.559C320.17 316.559 323.589 321.986 327.23 322.208C330.87 322.429 345.653 318.774 345.653 318.774L343.888 307.81Z" fill="white" stroke="#263238" stroke-width="0.5" stroke-miterlimit="10" stroke-linecap="round" stroke-linejoin="round"/>
<path d="M369.702 265.947C370.143 268.162 372.46 300.722 372.46 300.722L342.454 307.81L343.998 324.865C343.998 324.865 397.612 318.552 398.605 315.23C399.598 311.908 396.068 254.761 396.399 251.439C396.619 248.116 401.032 237.042 388.015 237.042" fill="#0023A0"/>
<path d="M369.702 265.947C370.143 268.162 372.46 300.722 372.46 300.722L342.454 307.81L343.998 324.865C343.998 324.865 397.612 318.552 398.605 315.23C399.598 311.908 396.068 254.761 396.399 251.439C396.619 248.116 401.032 237.042 388.015 237.042" stroke="#263238" stroke-width="0.5" stroke-miterlimit="10" stroke-linecap="round" stroke-linejoin="round"/>
<path d="M374.666 260.52C374.666 260.52 383.381 249.224 392.979 249.667L374.666 260.52Z" fill="#0023A0"/>
<path d="M374.666 260.52C374.666 260.52 383.381 249.224 392.979 249.667" stroke="#263238" stroke-width="0.5" stroke-miterlimit="10" stroke-linecap="round" stroke-linejoin="round"/>
<path d="M374.666 264.728C374.666 264.728 382.168 260.52 389.669 260.52L374.666 264.728Z" fill="#0023A0"/>
<path d="M374.666 264.728C374.666 264.728 382.168 260.52 389.669 260.52" stroke="#263238" stroke-width="0.5" stroke-miterlimit="10" stroke-linecap="round" stroke-linejoin="round"/>
<path d="M39.8534 460.421V396.298C39.8534 395.19 38.9709 394.415 37.9781 394.415H30.1455C29.0424 394.415 28.2701 395.301 28.2701 396.298V460.421H39.8534Z" fill="#4C4C4C" stroke="#263238" stroke-width="0.5" stroke-miterlimit="10" stroke-linecap="round" stroke-linejoin="round"/>
<path d="M30.1454 460.421V396.298C30.1454 395.19 29.2628 394.415 28.27 394.415H20.4375C19.3343 394.415 18.5621 395.301 18.5621 396.298V460.421H30.1454Z" fill="#263238" stroke="#263238" stroke-width="0.5" stroke-miterlimit="10" stroke-linecap="round" stroke-linejoin="round"/>
<path d="M34.448 460.421H174.11C172.896 457.874 171.352 455.548 169.366 454.219C163.078 450.232 102.734 440.819 102.734 440.819L40.0742 439.822L37.0956 440.819C37.0956 440.819 33.7861 445.47 34.1171 447.796C34.2274 449.014 34.3377 454.773 34.448 460.421Z" fill="#263238" stroke="#263238" stroke-width="0.5" stroke-miterlimit="10" stroke-linecap="round" stroke-linejoin="round"/>
<path d="M91.3717 319.438C91.3717 319.438 76.6995 327.855 71.7352 332.506C66.7709 337.157 58.3868 352.551 57.7249 361.965C57.063 371.379 49.7821 407.151 49.7821 407.151C49.7821 407.151 34.7789 436.499 37.0956 440.818C39.4123 445.137 101.08 440.818 102.734 440.818C104.389 440.818 101.08 422.434 101.08 422.434C101.08 422.434 124.357 386.33 125.46 376.584C126.453 366.838 119.503 340.48 118.179 334.389C116.745 328.408 94.3502 318.109 91.3717 319.438Z" fill="white" stroke="#263238" stroke-width="0.5" stroke-miterlimit="10" stroke-linecap="round" stroke-linejoin="round"/>
<path d="M79.8989 370.492C79.8989 370.492 91.5926 381.567 96.4465 385.222" stroke="#263238" stroke-width="0.5" stroke-miterlimit="10" stroke-linecap="round" stroke-linejoin="round"/>
<path d="M74.3831 379.131C74.3831 379.131 95.8949 386.551 101.411 387.105" stroke="#263238" stroke-width="0.5" stroke-miterlimit="10" stroke-linecap="round" stroke-linejoin="round"/>
<path d="M137.043 282.005C137.043 282.005 138.698 294.409 138.367 298.064C138.036 301.719 134.727 314.455 133.734 317.113C132.741 319.771 131.748 322.761 128.108 322.429C124.467 322.096 122.151 320.435 122.151 320.435L118.51 332.839L93.1371 318.109L96.4466 311.464C96.4466 311.464 92.8062 305.484 91.8133 295.406C90.8204 285.328 96.4466 274.031 103.838 269.602C111.119 265.282 123.805 266.944 127.446 269.934C131.086 272.924 137.043 282.005 137.043 282.005Z" fill="white" stroke="#263238" stroke-width="0.5" stroke-miterlimit="10" stroke-linecap="round" stroke-linejoin="round"/>
<path d="M91.7026 313.126C93.0265 313.458 121.709 326.526 122.04 329.849C122.371 333.171 123.695 343.582 123.695 343.582C123.695 343.582 114.98 335.94 104.72 330.181C94.3503 324.533 89.386 320.435 89.386 320.435L91.7026 313.126Z" fill="white" stroke="#263238" stroke-width="0.5" stroke-miterlimit="10" stroke-linecap="round" stroke-linejoin="round"/>
<path d="M117.076 254.539C117.076 254.539 125.791 250.885 132.741 252.546C139.691 254.207 142.449 262.292 142.449 268.937C142.449 275.582 138.808 283.666 137.484 283.999C136.161 284.331 132.851 268.272 126.453 263.621C120.054 258.859 117.076 254.539 117.076 254.539Z" fill="#0023A0" stroke="#263238" stroke-width="0.5" stroke-miterlimit="10" stroke-linecap="round" stroke-linejoin="round"/>
<path d="M106.375 256.533C106.375 256.533 120.054 249.223 132.079 259.523C144.103 269.822 140.022 280.233 137.374 283.998C134.727 287.653 134.727 294.741 132.741 296.07C130.755 297.399 130.424 290.754 128.107 289.425C125.791 288.096 126.122 293.08 123.474 299.835C120.827 306.48 108.802 316.226 102.514 315.562C96.2258 314.897 88.5036 307.92 84.2012 293.19C79.8989 278.461 82.8774 262.734 90.8203 257.751C98.7631 252.546 106.375 256.533 106.375 256.533Z" fill="#0023A0" stroke="#263238" stroke-width="0.5" stroke-miterlimit="10" stroke-linecap="round" stroke-linejoin="round"/>
<path d="M132.962 262.845C132.962 262.845 135.609 270.487 128.88 279.125C122.151 287.653 112.994 292.415 106.265 288.317C99.5355 284.219 99.2046 279.457 99.2046 279.457" stroke="#263238" stroke-width="0.5" stroke-miterlimit="10" stroke-linecap="round" stroke-linejoin="round"/>
<path d="M88.1726 280.897C88.1726 280.897 86.7385 303.933 100.528 306.259C114.318 308.584 122.04 294.187 122.04 294.187" stroke="#263238" stroke-width="0.5" stroke-miterlimit="10" stroke-linecap="round" stroke-linejoin="round"/>
<path d="M92.5853 281.34C100.201 281.34 106.375 275.043 106.375 267.275C106.375 259.507 100.201 253.21 92.5853 253.21C84.9695 253.21 78.7957 259.507 78.7957 267.275C78.7957 275.043 84.9695 281.34 92.5853 281.34Z" fill="#0023A0" stroke="#263238" stroke-width="0.5" stroke-miterlimit="10" stroke-linecap="round" stroke-linejoin="round"/>
<path d="M89.6067 265.171C89.6067 265.171 91.3718 255.979 96.336 254.871" stroke="#263238" stroke-width="0.5" stroke-miterlimit="10" stroke-linecap="round" stroke-linejoin="round"/>
<path d="M89.0552 266.389C89.0552 266.389 99.094 262.845 103.727 266.722" stroke="#263238" stroke-width="0.5" stroke-miterlimit="10" stroke-linecap="round" stroke-linejoin="round"/>
<path d="M88.5038 268.161C88.5038 268.161 84.0911 271.151 85.5252 277.907" stroke="#263238" stroke-width="0.5" stroke-miterlimit="10" stroke-linecap="round" stroke-linejoin="round"/>
<path d="M130.093 297.068C130.093 297.068 129.1 286.989 126.122 287.322C123.143 287.654 124.467 302.716 126.122 305.041C127.776 307.367 129.431 305.374 129.431 305.374" fill="white"/>
<path d="M130.093 297.068C130.093 297.068 129.1 286.989 126.122 287.322C123.143 287.654 124.467 302.716 126.122 305.041C127.776 307.367 129.431 305.374 129.431 305.374" stroke="#263238" stroke-width="0.5" stroke-miterlimit="10" stroke-linecap="round" stroke-linejoin="round"/>
<path d="M411.733 446.799H102.293L112.663 420.441H342.123L411.733 446.799Z" fill="#B5B5B5" stroke="#263238" stroke-width="0.5" stroke-miterlimit="10" stroke-linecap="round" stroke-linejoin="round"/>
<path d="M407.43 452.115H105.713V460.421H407.43V452.115Z" fill="#263238" stroke="#263238" stroke-width="0.5" stroke-miterlimit="10" stroke-linecap="round" stroke-linejoin="round"/>
<path d="M411.733 446.799H102.293V456.545H411.733V446.799Z" fill="#4C4C4C" stroke="#263238" stroke-width="0.5" stroke-miterlimit="10" stroke-linecap="round" stroke-linejoin="round"/>
<path d="M218.788 423.874L227.834 438.05H155.135L162.196 423.874H218.788Z" fill="white"/>
<path d="M205.109 428.083L214.155 442.369H141.456L148.516 428.083H205.109Z" fill="white"/>
<path d="M116.744 349.894L130.755 415.125L185.031 422.766C185.031 422.766 201.358 416.121 202.682 416.121C204.005 416.121 206.322 420.108 207.315 421.437C208.308 422.766 209.963 424.76 210.624 425.757C211.286 426.753 211.617 431.737 210.624 433.066C209.632 434.395 207.646 438.05 205.66 437.717C203.674 437.385 205.66 432.069 205.66 432.069C205.66 432.069 193.967 436.721 190.326 436.721C186.686 436.721 179.294 433.398 179.294 433.398C179.294 433.398 117.296 440.375 113.656 439.046C110.015 437.717 108.029 435.724 106.706 433.066C105.382 430.408 84.0906 358.754 84.0906 358.754" fill="white"/>
<path d="M116.744 349.894L130.755 415.125L185.031 422.766C185.031 422.766 201.358 416.121 202.682 416.121C204.005 416.121 206.322 420.108 207.315 421.437C208.308 422.766 209.963 424.76 210.624 425.757C211.286 426.753 211.617 431.737 210.624 433.066C209.632 434.395 207.646 438.05 205.66 437.717C203.674 437.385 205.66 432.069 205.66 432.069C205.66 432.069 193.967 436.721 190.326 436.721C186.686 436.721 179.294 433.398 179.294 433.398C179.294 433.398 117.296 440.375 113.656 439.046C110.015 437.717 108.029 435.724 106.706 433.066C105.382 430.408 84.0906 358.754 84.0906 358.754" stroke="#263238" stroke-width="0.5" stroke-miterlimit="10" stroke-linecap="round" stroke-linejoin="round"/>
<path d="M207.315 421.438C206.322 420.109 204.005 416.122 202.682 416.122C201.358 416.122 185.031 422.767 185.031 422.767L154.032 418.337C155.356 422.213 156.9 428.747 155.576 435.946C168.483 434.617 179.405 433.399 179.405 433.399C179.405 433.399 186.686 436.721 190.436 436.721C194.077 436.721 205.771 432.07 205.771 432.07C205.771 432.07 203.785 437.385 205.771 437.718C207.756 438.05 209.742 434.395 210.735 433.066C211.728 431.737 211.397 426.754 210.735 425.757C210.073 424.76 208.308 422.767 207.315 421.438Z" fill="white" stroke="#263238" stroke-width="0.5" stroke-miterlimit="10" stroke-linecap="round" stroke-linejoin="round"/>
<path d="M10.0599 460H538.06" stroke="#263238" stroke-width="0.5" stroke-miterlimit="10" stroke-linecap="round" stroke-linejoin="round"/>
<path d="M299.981 438.494H358.67V436.611L271.299 423.543L273.395 425.426L299.981 438.494Z" fill="white" stroke="#263238" stroke-width="0.5" stroke-miterlimit="10" stroke-linecap="round" stroke-linejoin="round"/>
<path d="M299.982 436.611H358.67L327.671 423.764L273.395 423.543L299.982 436.611Z" fill="white" stroke="#263238" stroke-width="0.5" stroke-miterlimit="10" stroke-linecap="round" stroke-linejoin="round"/>
<path d="M309.579 426.422H314.985L312.227 425.204L306.821 425.315L309.579 426.422Z" fill="white" stroke="#263238" stroke-width="0.5" stroke-miterlimit="10" stroke-linecap="round" stroke-linejoin="round"/>
<path d="M320.721 431.074L323.479 432.292H328.995L326.127 431.074H320.721Z" fill="white" stroke="#263238" stroke-width="0.5" stroke-miterlimit="10" stroke-linecap="round" stroke-linejoin="round"/>
<path d="M330.87 429.302H324.803L326.347 429.966H332.525L330.87 429.302Z" fill="white" stroke="#263238" stroke-width="0.5" stroke-miterlimit="10" stroke-linecap="round" stroke-linejoin="round"/>
<path d="M318.074 429.966H323.589L321.935 429.302H316.419L318.074 429.966Z" fill="white" stroke="#263238" stroke-width="0.5" stroke-miterlimit="10" stroke-linecap="round" stroke-linejoin="round"/>
<path d="M322.155 428.195H328.223L326.458 427.53H320.501L322.155 428.195Z" fill="white" stroke="#263238" stroke-width="0.5" stroke-miterlimit="10" stroke-linecap="round" stroke-linejoin="round"/>
<path d="M301.195 426.423H306.711L304.063 425.316H298.658L301.195 426.423Z" fill="white" stroke="#263238" stroke-width="0.5" stroke-miterlimit="10" stroke-linecap="round" stroke-linejoin="round"/>
<path d="M312.116 427.53L313.881 428.195H319.287L317.632 427.53H312.116Z" fill="white" stroke="#263238" stroke-width="0.5" stroke-miterlimit="10" stroke-linecap="round" stroke-linejoin="round"/>
<path d="M339.144 435.393H345.432L340.689 433.399H334.401L339.144 435.393Z" fill="white" stroke="#263238" stroke-width="0.5" stroke-miterlimit="10" stroke-linecap="round" stroke-linejoin="round"/>
<path d="M326.127 433.399L330.76 435.393H336.276L331.643 433.399H326.127Z" fill="white" stroke="#263238" stroke-width="0.5" stroke-miterlimit="10" stroke-linecap="round" stroke-linejoin="round"/>
<path d="M317.743 433.399L322.376 435.393H327.892L323.259 433.399H317.743Z" fill="white" stroke="#263238" stroke-width="0.5" stroke-miterlimit="10" stroke-linecap="round" stroke-linejoin="round"/>
<path d="M314.985 433.399H304.173L308.035 435.393H319.618L314.985 433.399Z" fill="white" stroke="#263238" stroke-width="0.5" stroke-miterlimit="10" stroke-linecap="round" stroke-linejoin="round"/>
<path d="M317.853 426.422H323.81L320.832 425.204H314.985L317.853 426.422Z" fill="white" stroke="#263238" stroke-width="0.5" stroke-miterlimit="10" stroke-linecap="round" stroke-linejoin="round"/>
<path d="M328.995 431.074L331.863 432.292H338.041L335.173 431.074H328.995Z" fill="white" stroke="#263238" stroke-width="0.5" stroke-miterlimit="10" stroke-linecap="round" stroke-linejoin="round"/>
<path d="M320.611 432.292L317.853 431.074H312.337L315.206 432.292H320.611Z" fill="white" stroke="#263238" stroke-width="0.5" stroke-miterlimit="10" stroke-linecap="round" stroke-linejoin="round"/>
<path d="M298.327 426.427L295.9 425.43H288.619L290.494 426.427H298.327Z" fill="white" stroke="#263238" stroke-width="0.5" stroke-miterlimit="10" stroke-linecap="round" stroke-linejoin="round"/>
<path d="M313.661 429.302H308.145L309.69 429.966H315.206L313.661 429.302Z" fill="white" stroke="#263238" stroke-width="0.5" stroke-miterlimit="10" stroke-linecap="round" stroke-linejoin="round"/>
<path d="M303.843 427.53L305.497 428.195H311.013L309.359 427.53H303.843Z" fill="white" stroke="#263238" stroke-width="0.5" stroke-miterlimit="10" stroke-linecap="round" stroke-linejoin="round"/>
<path d="M306.932 429.966L305.277 429.302H296.231L297.555 429.966H306.932Z" fill="white" stroke="#263238" stroke-width="0.5" stroke-miterlimit="10" stroke-linecap="round" stroke-linejoin="round"/>
<path d="M294.024 428.195H302.629L300.974 427.53H292.59L294.024 428.195Z" fill="white" stroke="#263238" stroke-width="0.5" stroke-miterlimit="10" stroke-linecap="round" stroke-linejoin="round"/>
<path d="M309.469 431.074H299.651L302.078 432.292H312.337L309.469 431.074Z" fill="white" stroke="#263238" stroke-width="0.5" stroke-miterlimit="10" stroke-linecap="round" stroke-linejoin="round"/>
<path d="M299.985 436.611H297.889L257.292 377.914L259.278 377.25H285.864L299.985 436.611Z" fill="white" stroke="#263238" stroke-width="0.5" stroke-miterlimit="10" stroke-linecap="round" stroke-linejoin="round"/>
<path d="M297.885 436.611L271.299 423.543L257.178 377.25H283.765L297.885 436.611Z" fill="white" stroke="#263238" stroke-width="0.5" stroke-miterlimit="10" stroke-linecap="round" stroke-linejoin="round"/>
<path d="M529.993 460.422V389.211C529.993 388.104 529.111 387.328 528.118 387.328H502.304C501.2 387.328 500.428 388.214 500.428 389.211V460.422H529.993Z" fill="#263238" stroke="#263238" stroke-width="0.5" stroke-miterlimit="10" stroke-linecap="round" stroke-linejoin="round"/>
<path d="M520.616 460.423V389.211C520.616 388.104 519.734 387.328 518.741 387.328H492.927C491.823 387.328 491.051 388.214 491.051 389.211V460.423H520.616Z" fill="#4C4C4C" stroke="#263238" stroke-width="0.5" stroke-miterlimit="10" stroke-linecap="round" stroke-linejoin="round"/>
<path d="M417.138 346.905C417.138 346.905 405.776 354.547 404.341 359.198C402.907 363.849 394.413 390.54 393.53 392.644C392.648 394.748 385.698 405.491 385.698 405.491L348.3 407.263C348.3 407.263 331.422 403.497 329.877 403.497C328.443 403.497 313.881 413.133 312.668 415.791C311.454 418.448 308.917 422.214 310.02 423.1C311.234 423.986 312.889 422.546 312.889 422.546C312.889 422.546 313.44 426.644 320.721 425.204C328.002 423.764 335.283 418.448 335.283 418.448C335.283 418.448 344.329 422.878 347.859 421.992C347.969 421.992 348.08 421.882 348.19 421.882V425.758C348.19 425.758 397.502 428.416 399.598 427.862C401.694 427.308 412.395 414.129 412.395 414.129L424.971 346.13C424.971 346.019 424.419 339.596 417.138 346.905Z" fill="#0023A0" stroke="#263238" stroke-width="0.5" stroke-miterlimit="10" stroke-linecap="round" stroke-linejoin="round"/>
<path d="M349.073 408.26L348.411 407.264H348.3C348.3 407.264 331.422 403.498 329.877 403.498C328.443 403.498 313.882 413.133 312.668 415.791C311.455 418.449 308.917 422.215 310.02 423.101C311.234 423.987 312.889 422.547 312.889 422.547C312.889 422.547 313.44 426.644 320.721 425.205C328.002 423.765 335.283 418.449 335.283 418.449C335.283 418.449 344.329 422.879 347.859 421.993C347.97 421.993 348.08 421.882 348.19 421.882V425.759L349.073 408.26Z" fill="#4C4C4C" stroke="#263238" stroke-width="0.5" stroke-miterlimit="10" stroke-linecap="round" stroke-linejoin="round"/>
<path d="M418.462 460.423H419.565C418.683 458.319 417.911 456.325 417.58 455.328C416.697 452.227 405.445 411.583 404.231 405.602C403.018 399.622 403.569 391.205 406.769 379.355C409.858 367.505 417.138 347.016 417.138 347.016L406.769 361.524C406.769 361.524 398.054 395.303 398.054 399.733C398.054 404.163 402.466 426.312 406.769 437.276C409.306 443.478 414.491 453.335 418.462 460.423Z" fill="#0023A0" stroke="#263238" stroke-width="0.5" stroke-miterlimit="10" stroke-linecap="round" stroke-linejoin="round"/>
<path d="M421.772 338.709C421.772 338.709 410.961 355.654 408.092 367.393C405.224 379.132 402.797 389.321 402.797 399.953C402.797 410.474 414.491 440.376 416.256 444.142C418.021 447.907 436.996 449.126 442.842 430.963C448.689 412.8 451.337 360.305 447.807 348.344C444.276 336.383 429.053 330.846 421.772 338.709Z" fill="white" stroke="#263238" stroke-width="0.5" stroke-miterlimit="10" stroke-linecap="round" stroke-linejoin="round"/>
<path d="M418.683 336.272C417.91 337.38 408.313 342.807 408.313 342.807L407.982 352.885L410.85 347.458L415.373 360.859L420.227 335.94L418.683 336.272Z" fill="#808080" stroke="#263238" stroke-width="0.5" stroke-miterlimit="10" stroke-linecap="round" stroke-linejoin="round"/>
<path d="M419.786 460.421H499.214C496.567 453.444 486.528 426.2 486.197 424.982C485.866 423.542 477.592 359.419 468.987 347.458C460.383 335.608 440.305 331.288 436.003 333.725C436.003 333.725 421.661 362.963 416.256 376.585C410.85 390.317 407.32 417.34 407.32 421.327C407.32 425.314 414.822 450.122 414.822 450.122L419.786 460.421Z" fill="#0023A0" stroke="#263238" stroke-width="0.5" stroke-miterlimit="10" stroke-linecap="round" stroke-linejoin="round"/>
<path d="M477.041 438.936L442.622 449.236L444.828 453.666L463.913 447.796" stroke="#263238" stroke-width="0.5" stroke-miterlimit="10" stroke-linecap="round" stroke-linejoin="round"/>
<path d="M401.694 285.55C401.694 285.55 398.936 294.078 398.826 295.85C398.715 297.622 398.936 299.726 398.936 299.726C398.936 299.726 399.046 300.834 398.495 301.72C397.943 302.606 391.435 308.918 392.207 310.136C392.979 311.355 397.392 316.338 397.392 316.338C397.392 316.338 400.481 331.289 404.673 332.951C408.865 334.723 414.711 333.615 414.711 333.615L416.808 339.485L442.842 330.957L442.401 322.319C442.401 322.319 445.049 307.035 442.07 295.961C439.312 284.996 413.167 273.036 401.694 285.55Z" fill="white" stroke="#263238" stroke-width="0.5" stroke-miterlimit="10" stroke-linecap="round" stroke-linejoin="round"/>
<path d="M402.577 303.048C402.246 304.377 401.584 305.263 401.143 305.152C400.701 305.042 400.481 303.934 400.812 302.605C401.143 301.276 401.805 300.39 402.246 300.501C402.687 300.722 402.908 301.83 402.577 303.048Z" fill="#263238"/>
<path d="M400.701 297.29C400.701 297.29 404.342 296.182 405.776 300.169L400.701 297.29Z" fill="white"/>
<path d="M400.701 297.29C400.701 297.29 404.342 296.182 405.776 300.169" stroke="#263238" stroke-width="0.5" stroke-miterlimit="10" stroke-linecap="round" stroke-linejoin="round"/>
<path d="M398.164 318.553C398.164 318.553 401.032 321.432 406.217 319.66L398.164 318.553Z" fill="white"/>
<path d="M398.164 318.553C398.164 318.553 401.032 321.432 406.217 319.66" stroke="#263238" stroke-width="0.5" stroke-miterlimit="10" stroke-linecap="round" stroke-linejoin="round"/>
<path d="M417.69 264.618C417.69 264.618 415.373 258.084 407.982 256.645C400.591 255.205 395.185 265.615 397.061 269.602C398.936 273.589 399.819 274.475 396.178 274.697C392.648 274.918 385.808 284.221 391.765 289.98C397.833 295.739 405.114 287.543 405.445 290.423C405.776 293.302 404.783 295.96 408.313 296.071C411.843 296.182 417.58 295.85 416.697 298.065C415.815 300.279 415.594 305.595 418.904 306.371C422.213 307.146 424.309 303.048 426.626 303.602C428.942 304.156 432.142 311.687 430.046 315.784C427.95 319.882 426.626 319.882 426.295 320.879C426.074 321.875 432.473 328.742 439.202 327.524C445.821 326.305 454.536 324.09 455.529 316.892C456.522 309.693 454.426 308.143 457.184 305.595C459.941 303.048 462.589 302.273 461.817 298.175C461.045 294.078 458.507 292.749 459.28 289.426C460.052 286.104 456.742 270.71 442.401 264.065C428.28 257.531 417.69 264.618 417.69 264.618Z" fill="#263238" stroke="#263238" stroke-width="0.5" stroke-miterlimit="10" stroke-linecap="round" stroke-linejoin="round"/>
<path d="M445.821 322.872L412.946 342.031L415.373 360.859L450.454 332.839L445.821 322.872Z" fill="white" stroke="#263238" stroke-width="0.5" stroke-miterlimit="10" stroke-linecap="round" stroke-linejoin="round"/>
<path d="M359.773 412.024C359.773 412.024 353.154 409.587 348.962 408.369C341.792 406.265 335.062 403.275 332.525 403.939C329.988 404.714 317.743 413.131 317.743 413.131C317.743 413.131 313.44 423.542 313.771 424.981C314.102 426.421 316.75 424.095 316.75 424.095C316.75 424.095 315.205 426.089 316.639 427.529C318.073 428.968 319.508 426.089 319.508 426.089C319.508 426.089 319.177 429.744 321.273 429.301C323.479 428.968 323.589 427.307 323.589 427.307C323.589 427.307 323.7 429.301 325.575 429.301C327.45 429.301 331.312 421.77 331.312 421.77L338.151 422.102C338.151 422.102 343.557 424.981 346.756 425.314C349.955 425.646 353.927 423.542 353.927 423.542L358.229 424.649L361.869 414.239L359.773 412.024Z" fill="white" stroke="#263238" stroke-width="0.5" stroke-miterlimit="10" stroke-linecap="round" stroke-linejoin="round"/>
<path d="M316.86 424.095C316.86 424.095 320.501 415.235 321.163 414.682C321.714 414.128 329.106 409.92 329.106 409.92" stroke="#263238" stroke-width="0.5" stroke-miterlimit="10" stroke-linecap="round" stroke-linejoin="round"/>
<path d="M319.618 426.089C319.618 426.089 324.031 417.008 324.472 416.565C324.913 416.122 330.539 413.353 330.539 413.353" stroke="#263238" stroke-width="0.5" stroke-miterlimit="10" stroke-linecap="round" stroke-linejoin="round"/>
<path d="M323.81 427.307C323.81 427.307 328.112 419.001 328.774 418.558C329.546 418.115 331.422 417.118 331.422 417.118" stroke="#263238" stroke-width="0.5" stroke-miterlimit="10" stroke-linecap="round" stroke-linejoin="round"/>
<path d="M454.977 346.683C454.977 346.683 432.362 361.412 432.693 367.282C433.024 373.041 434.899 373.041 434.899 373.041L423.426 416.344C423.426 416.344 419.786 413.464 419.455 417.119C419.124 420.774 419.124 420.773 419.124 420.773L359.111 410.695L353.044 425.868C353.044 425.868 377.865 435.614 395.075 441.705C412.284 447.796 430.266 454.663 432.031 451.451C433.796 448.239 469.429 394.858 471.525 390.871C473.731 386.884 473.731 379.686 473.731 379.686" fill="#0023A0"/>
<path d="M454.977 346.683C454.977 346.683 432.362 361.412 432.693 367.282C433.024 373.041 434.899 373.041 434.899 373.041L423.426 416.344C423.426 416.344 419.786 413.464 419.455 417.119C419.124 420.774 419.124 420.773 419.124 420.773L359.111 410.695L353.044 425.868C353.044 425.868 377.865 435.614 395.075 441.705C412.284 447.796 430.266 454.663 432.031 451.451C433.796 448.239 469.429 394.858 471.525 390.871C473.731 386.884 473.731 379.686 473.731 379.686" stroke="#263238" stroke-width="0.5" stroke-miterlimit="10" stroke-linecap="round" stroke-linejoin="round"/>
<path d="M434.899 373.041C434.899 373.041 441.739 358.976 458.287 357.869" stroke="#263238" stroke-width="0.5" stroke-miterlimit="10" stroke-linecap="round" stroke-linejoin="round"/>
</svg>
