<?xml version="1.0" encoding="utf-8"?><svg fill="none" xmlns="http://www.w3.org/2000/svg" viewBox="0 0 20 18" width="20" height="18"><path fill-rule="evenodd" clip-rule="evenodd" d="M6.25 3v-.75A2.25 2.25 0 018.5 0h3a2.25 2.25 0 012.25 2.25V3h3.75a2.25 2.25 0 012.25 2.25v2.781a2.25 2.25 0 01-.751 1.678.78.78 0 01.001.041v6A2.25 2.25 0 0116.75 18H3.25A2.25 2.25 0 011 15.75v-6l.001-.04A2.25 2.25 0 01.25 8.03V5.25A2.25 2.25 0 012.5 3h3.75zm1.5-.75a.75.75 0 01.75-.75h3a.75.75 0 01.75.75V3h-4.5v-.75zm4.436 10.286L17.5 10.45v5.301a.75.75 0 01-.75.75H3.25a.75.75 0 01-.75-.75v-5.301l5.314 2.087a2.25 2.25 0 004.372 0zm-1.436-.553v.03a.75.75 0 11-1.5-.03v-.733h1.5v.733zm1.5-1.083l5.524-2.17a.75.75 0 00.476-.699V5.25a.75.75 0 00-.75-.75h-15a.75.75 0 00-.75.75v2.781a.75.75 0 00.476.698L7.75 10.9V10.5a.75.75 0 01.75-.75h3a.75.75 0 01.75.75v.4z" fill="currentColor"/></svg>