<?xml version="1.0" encoding="utf-8"?><svg fill="none" xmlns="http://www.w3.org/2000/svg" viewBox="0 0 22 18" width="22" height="18"><path d="M12 11.5c0-.497.603-.5 1.1-.5h4.2c.497 0 1.2.003 1.2.5s-.703.5-1.2.5h-4.2c-.497 0-1.1-.003-1.1-.5z" fill="currentColor"/><path fill-rule="evenodd" clip-rule="evenodd" d="M.2 3.9A3.3 3.3 0 013.5.6h15a3.3 3.3 0 013.3 3.3v10.2a3.3 3.3 0 01-3.3 3.3h-15a3.3 3.3 0 01-3.3-3.3V3.9zm3.3-1.5A1.5 1.5 0 002 3.9V6h18V3.9a1.5 1.5 0 00-1.5-1.5h-15zM20 8.075V7.5H2V14.1a1.5 1.5 0 001.5 1.5h15a1.5 1.5 0 001.5-1.5V8.075z" fill="currentColor"/></svg>