<?xml version="1.0" encoding="utf-8"?><svg fill="none" xmlns="http://www.w3.org/2000/svg" viewBox="0 0 20 20" width="20" height="20"><path fill-rule="evenodd" clip-rule="evenodd" d="M17.408.47a.75.75 0 00-1.06 0L8.391 8.425a.75.75 0 00-.18.293L7.149 11.9a.75.75 0 00.95.948l3.181-1.06a.75.75 0 00.293-.181l7.955-7.955a.75.75 0 000-1.061L17.408.47zm-7.83 8.89l7.3-7.3 1.06 1.061-7.3 7.3-1.59.53.53-1.59z" fill="currentColor"/><path d="M1 1.75a.75.75 0 00-.75.75V19c0 .414.336.75.75.75h16.5a.75.75 0 00.75-.75V8.5a.75.75 0 00-1.5 0v9.75h-15v-15h9.75a.75.75 0 000-1.5H1z" fill="currentColor"/></svg>