<?xml version="1.0" encoding="utf-8"?><svg fill="none" xmlns="http://www.w3.org/2000/svg" viewBox="0 0 20 16" width="20" height="16"><path fill-rule="evenodd" clip-rule="evenodd" d="M3.25 5.125c0-1.036.84-1.875 1.875-1.875h2.25c1.036 0 1.875.84 1.875 1.875v2.25c0 1.036-.84 1.875-1.875 1.875h-2.25A1.875 1.875 0 013.25 7.375v-2.25zm1.875-.375a.375.375 0 00-.375.375v2.25c0 .207.168.375.375.375h2.25a.375.375 0 00.375-.375v-2.25a.375.375 0 00-.375-.375h-2.25z" fill="currentColor"/><path d="M13.75 3.25a.75.75 0 000 1.5H16a.75.75 0 000-1.5h-2.25zM10.75 7.75A.75.75 0 0111.5 7H16a.75.75 0 010 1.5h-4.5a.75.75 0 01-.75-.75zM4 10.75a.75.75 0 000 1.5h12a.75.75 0 000-1.5H4z" fill="currentColor"/><path fill-rule="evenodd" clip-rule="evenodd" d="M.25 2.5A2.25 2.25 0 012.5.25h15a2.25 2.25 0 012.25 2.25V13a2.25 2.25 0 01-2.25 2.25h-15A2.25 2.25 0 01.25 13V2.5zm2.25-.75a.75.75 0 00-.75.75V13c0 .414.336.75.75.75h15a.75.75 0 00.75-.75V2.5a.75.75 0 00-.75-.75h-15z" fill="currentColor"/></svg>