<?xml version="1.0" encoding="utf-8"?><svg fill="none" xmlns="http://www.w3.org/2000/svg" viewBox="0 0 45 16" width="45" height="16"><path d="M22.22 7.45c.78 0 1.248-.684 1.248-1.791 0-1.107-.468-1.792-1.248-1.792s-1.255.66-1.255 1.792c0 1.132.489 1.792 1.255 1.792zm2.174 2.491a.095.095 0 01-.146 0l-.383-.537a1.817 1.817 0 00-1.642-.781c-1.578 0-2.567-1.147-2.567-2.971s.99-2.978 2.567-2.978c1.578 0 2.56 1.147 2.56 2.978 0 .928-.322 1.87-.861 2.196-.096.058-.096.083 0 .115.38.13.708.38.933.717l.354.494a.097.097 0 010 .147l-.815.62zM25.78 2.764h1.096c.028 0 .055.011.075.031.02.02.031.048.031.076v5.554a.108.108 0 01-.106.108H25.78a.102.102 0 01-.073-.03.104.104 0 01-.03-.074V2.868a.106.106 0 01.103-.104zM34.436 6.78c-.145.563-.266 1.1-.354 1.652a.104.104 0 01-.073.093.102.102 0 01-.04.004h-1.49a.102.102 0 01-.103-.057.106.106 0 01-.01-.04 21.492 21.492 0 00-.291-1.35l-.249-1.076c-.05-.211-.113-.552-.16-.838 0-.115-.113-.115-.127 0-.05.283-.113.62-.16.838l-.248 1.075a40.69 40.69 0 00-.29 1.351.104.104 0 01-.114.097h-1.475a.102.102 0 01-.103-.057.104.104 0 01-.01-.04c-.107-.552-.228-1.075-.355-1.652l-1.007-3.913c-.025-.064 0-.115.088-.115h1.11a.113.113 0 01.12.09l.547 2.197c.14.59.24 1.188.298 1.791 0 .108.127.115.145 0 .083-.604.201-1.202.355-1.791l.592-2.172a.115.115 0 01.113-.09h.919a.113.113 0 01.113.09l.596 2.197c.154.59.272 1.188.355 1.791 0 .115.127.108.138 0a12.05 12.05 0 01.298-1.791l.542-2.197a.115.115 0 01.121-.09h1.11c.07 0 .113.05.089.115l-.99 3.888zM36.33 2.764h1.096c.028 0 .055.011.075.031.02.02.031.048.031.076v5.554a.108.108 0 01-.031.076.106.106 0 01-.075.032H36.33a.102.102 0 01-.073-.03.104.104 0 01-.03-.074V2.868a.108.108 0 01.103-.104z" fill="#001EA3"/><path d="M17.46 15.363c.136.168-.07.358-.223.204-1.531-1.369-2.819-1.76-4.092-1.813a15.63 15.63 0 00-2.05.1l-.425.036h-.188c-.25.028-.5.042-.752.043a6.73 6.73 0 01-3.347-.87 6.416 6.416 0 01-2.447-2.438 6.73 6.73 0 01-.883-3.375 6.82 6.82 0 01.883-3.39 6.607 6.607 0 012.405-2.456c1.002-.59 2.141-.9 3.3-.902a6.81 6.81 0 013.402.882 6.473 6.473 0 012.453 2.444 6.73 6.73 0 01.894 3.386c.001.466-.044.93-.135 1.387 0 .064-.028.143-.05.233-.02.09-.035.147-.056.218a7.765 7.765 0 01-.752 1.623c-.043.072-.067 0-.074-.025a3.108 3.108 0 00-.424-1.313c-.238-.4-.562-.74-.949-.994l-.039-.025a3.42 3.42 0 00-.411-.219 4.227 4.227 0 00-.607-.215c-.13-.036-.429-.022-.322-.129a6.184 6.184 0 011.418 0h.043c.014-.155.021-.315.021-.48a4.34 4.34 0 00-.31-1.74 4.303 4.303 0 00-.977-1.467 4.184 4.184 0 00-1.41-.97 4.146 4.146 0 00-1.675-.32 4.034 4.034 0 00-1.676.312 4.07 4.07 0 00-1.402.978c-.407.416-.727.91-.94 1.454a4.388 4.388 0 00-.301 1.71 4.29 4.29 0 00.313 1.716c.221.544.552 1.036.97 1.444a4.12 4.12 0 001.39.965c.524.222 1.088.331 1.656.322h.17v-.043c-.067-.885-.081-1.616.096-1.322.064.104.128.204.188.297.21.317.447.614.71.889l.035.036c.848.867 1.68 1.075 2.567 1.3h.057l.44.111c1.064.284 2.195.742 3.525 2.408l-.018.008zm-2.921-5.329c-.131-.04-.227 0-.277.079a.724.724 0 00.128.634c.149.237.277.358.376.358a.116.116 0 00.088-.043.51.51 0 00.05-.358.905.905 0 00-.365-.67zm-1.475 1.075a.386.386 0 00-.312.133.647.647 0 00.173.842.705.705 0 00.454.165.476.476 0 00.398-.18c.155-.211.067-.512-.231-.766a.751.751 0 00-.482-.194z" fill="#FF8C00"/><path d="M26.95 9.825l-.776.906v-.906h-.518v2.282h.525v-.942c.14-.01.28.031.394.114a.616.616 0 01.233.34c.055.156.123.306.203.449l.02.036h.568l-.06-.111a3.512 3.512 0 01-.188-.427l-.046-.1a1.03 1.03 0 00-.631-.667l.947-.992-.67.018zM28.773 9.775a1.1 1.1 0 00-.819.357 1.123 1.123 0 00-.294.851 1.087 1.087 0 00.275.824 1.065 1.065 0 00.788.348 1.1 1.1 0 00.826-.353 1.127 1.127 0 00.299-.855 1.085 1.085 0 00-.28-.827 1.065 1.065 0 00-.795-.345zm.55 1.187c0 .437-.238.752-.568.752-.33 0-.567-.312-.567-.745 0-.359.177-.753.574-.753.398 0 .56.488.56.746zM32.411 11.654h-.588V9.826h-.521v1.828h-.59V9.826h-.524v2.28h2.752v-2.28h-.529v1.828zM34.397 9.775c-.628 0-1.064.502-1.064 1.226a1.085 1.085 0 00.3.827 1.063 1.063 0 00.81.323c.25.006.5-.041.73-.14l.057-.025-.099-.423-.081.036c-.176.076-.366.111-.557.104a.594.594 0 01-.577-.36.61.61 0 01-.05-.235h1.47v-.086a1.391 1.391 0 000-.168.984.984 0 00-.234-.748.965.965 0 00-.705-.33zm.426.907h-.958a.546.546 0 01.176-.342.536.536 0 01.524-.111.42.42 0 01.144.091c.081.103.126.23.128.362h-.014zM35.915 10.75c0 .488-.028.742-.192.864a.405.405 0 01-.173.072h-.071l.056.44h.064a.68.68 0 00.458-.143c.305-.2.354-.623.354-1.243v-.462h.578v1.827h.525V9.826h-1.613l.014.925zM39.007 9.775c-.628 0-1.064.502-1.064 1.226a1.085 1.085 0 00.3.827 1.062 1.062 0 00.81.323c.25.006.5-.041.73-.14l.057-.025-.099-.423-.082.036c-.175.076-.365.111-.556.104a.594.594 0 01-.593-.355.61.61 0 01-.053-.24h1.472v-.082a1.41 1.41 0 000-.172.984.984 0 00-.23-.742.967.967 0 00-.692-.337zm.425.907h-.957a.547.547 0 01.5-.48.419.419 0 01.312.118.59.59 0 01.142.362h.003zM42.064 11.571l-.035-.09a1.03 1.03 0 00-.632-.666l.947-.993h-.674l-.776.907v-.903h-.525v2.282h.525v-.942c.14-.009.28.031.394.114a.616.616 0 01.233.341c.055.155.123.305.203.448l.02.036h.568l-.06-.111a3.532 3.532 0 01-.188-.423z" fill="#F39627"/><path d="M38.851 9.188h-.237v.358h.237v-.358zM39.404 9.188h-.237v.358h.237v-.358z" fill="#FF8C00"/></svg>