<?xml version="1.0" encoding="utf-8"?><svg viewBox="0 0 32 32" fill="none" xmlns="http://www.w3.org/2000/svg" width="32" height="32"><path fill-rule="evenodd" clip-rule="evenodd" d="M1.6 16C1.6 8.048 8.048 1.6 16 1.6S30.4 8.048 30.4 16 23.952 30.4 16 30.4 1.6 23.952 1.6 16zM20 24.8c2.656 0 4.8-2.144 4.8-4.8v-8c0-2.656-2.144-4.8-4.8-4.8h-8A4.794 4.794 0 007.2 12v8c0 2.656 2.144 4.8 4.8 4.8h8zm0-15.68h-8A2.888 2.888 0 009.12 12v8A2.888 2.888 0 0012 22.88h8A2.888 2.888 0 0022.88 20v-8A2.888 2.888 0 0020 9.12zm-4 11.2A4.322 4.322 0 0111.68 16 4.322 4.322 0 0116 11.68 4.322 4.322 0 0120.32 16 4.322 4.322 0 0116 20.32zm4.8-8.305a.792.792 0 01-.8-.8c0-.448.352-.8.8-.8.448 0 .8.352.8.8 0 .448-.352.8-.8.8zM16 18.4a2.4 2.4 0 100-4.8 2.4 2.4 0 000 4.8z" fill="currentColor"/></svg>