<?xml version="1.0" encoding="utf-8"?><svg fill="none" xmlns="http://www.w3.org/2000/svg" viewBox="0 0 136 20" width="136" height="20"><path d="M.698 19.722a.746.746 0 01-.503-.194.737.737 0 01-.195-.5V.972c0-.203.065-.37.195-.5A.746.746 0 01.698.278h3.016c.447 0 .773.203.978.61l4.915 8.75 4.916-8.75c.204-.407.53-.61.977-.61h2.988c.205 0 .373.065.503.194.15.13.224.297.224.5v18.056c0 .204-.075.37-.224.5a.683.683 0 01-.503.194h-3.323a.782.782 0 01-.53-.194.675.675 0 01-.196-.5V8.61l-3.128 5.806c-.242.426-.568.639-.977.639H8.88c-.242 0-.437-.056-.586-.167a1.44 1.44 0 01-.391-.472L4.748 8.61v10.417a.737.737 0 01-.196.5.683.683 0 01-.502.194H.698zM29.412 19.722a.746.746 0 01-.503-.194.738.738 0 01-.195-.5v-5.972l-6.48-11.89a1.53 1.53 0 01-.083-.305c0-.148.055-.278.167-.389.13-.13.28-.194.447-.194h3.491c.372 0 .698.194.978.583l3.993 7.167L35.25.86c.223-.389.55-.583.977-.583h3.492a.53.53 0 01.418.194c.112.111.168.241.168.39a.97.97 0 01-.056.305l-6.48 11.889v5.972c0 .204-.074.37-.223.5a.682.682 0 01-.502.194h-3.631zM43.953 19.722a.746.746 0 01-.502-.194.737.737 0 01-.196-.5V.972c0-.203.065-.37.196-.5a.746.746 0 01.502-.194H56.8c.205 0 .373.065.503.194.13.13.196.297.196.5v2.806a.738.738 0 01-.196.5.682.682 0 01-.503.194h-8.63v4.084h8.072a.64.64 0 01.503.222c.13.13.195.296.195.5v2.778a.738.738 0 01-.195.5.683.683 0 01-.503.194H48.17v6.278c0 .204-.065.37-.195.5a.683.683 0 01-.503.194h-3.519zM68.93 20c-2.626 0-4.693-.639-6.201-1.917-1.508-1.277-2.309-3.157-2.402-5.639a75.125 75.125 0 01-.028-2.388c0-1.075.01-1.88.028-2.417.093-2.445.903-4.324 2.43-5.639 1.545-1.333 3.603-2 6.172-2 2.57 0 4.627.667 6.172 2 1.546 1.315 2.356 3.194 2.43 5.639.037 1.074.056 1.88.056 2.417 0 .518-.019 1.314-.056 2.388-.093 2.482-.894 4.362-2.402 5.64C73.621 19.36 71.554 20 68.93 20zm0-4c1.023 0 1.833-.306 2.429-.917.614-.61.94-1.546.977-2.805.038-1.074.056-1.834.056-2.278 0-.481-.018-1.24-.056-2.278-.037-1.259-.363-2.194-.977-2.805-.615-.611-1.424-.917-2.43-.917-1.005 0-1.815.306-2.43.917-.596.61-.921 1.546-.977 2.805A68.844 68.844 0 0065.494 10c0 .982.01 1.74.028 2.278.056 1.259.381 2.194.977 2.805.596.611 1.406.917 2.43.917zM82.08 19.722a.746.746 0 01-.502-.194.737.737 0 01-.195-.5V.972c0-.203.065-.37.195-.5a.746.746 0 01.503-.194h7.596c2.44 0 4.339.555 5.698 1.666 1.378 1.093 2.067 2.649 2.067 4.667 0 1.296-.308 2.398-.922 3.306-.615.907-1.462 1.601-2.542 2.083l3.827 6.833a.688.688 0 01.083.306c0 .148-.065.287-.195.417a.537.537 0 01-.391.166h-3.715c-.54 0-.921-.25-1.145-.75l-3.183-6.11h-2.85v6.166c0 .204-.074.37-.223.5a.683.683 0 01-.502.194H82.08zm7.541-10.805c.857 0 1.509-.204 1.956-.611.446-.426.67-1.01.67-1.75 0-.741-.224-1.325-.67-1.75-.429-.445-1.08-.667-1.956-.667H86.41v4.778h3.212zM109.185 20c-2.663 0-4.748-.639-6.256-1.917-1.49-1.296-2.281-3.166-2.374-5.61-.019-.5-.028-1.316-.028-2.445 0-1.148.009-1.982.028-2.5.093-2.408.903-4.26 2.43-5.556C104.511.657 106.578 0 109.185 0c1.638 0 3.109.278 4.412.833 1.304.537 2.328 1.315 3.072 2.334.764 1 1.155 2.176 1.173 3.527v.056a.5.5 0 01-.195.389.595.595 0 01-.391.139h-3.77c-.242 0-.429-.047-.559-.14-.13-.11-.242-.305-.335-.582-.261-.945-.67-1.602-1.229-1.973-.558-.389-1.294-.583-2.206-.583-2.197 0-3.333 1.222-3.408 3.667-.018.5-.027 1.268-.027 2.305 0 1.037.009 1.824.027 2.361.075 2.445 1.211 3.667 3.408 3.667.912 0 1.657-.194 2.234-.583.577-.408.977-1.065 1.201-1.973.074-.277.177-.463.307-.555.13-.111.326-.167.587-.167h3.77a.57.57 0 01.419.167c.13.111.186.25.167.417-.018 1.351-.409 2.537-1.173 3.555-.744 1-1.768 1.778-3.072 2.333-1.303.538-2.774.806-4.412.806zM122.036 19.722a.747.747 0 01-.503-.194.739.739 0 01-.195-.5V.972c0-.203.065-.37.195-.5a.747.747 0 01.503-.194h13.042c.205 0 .373.065.503.194.13.13.196.297.196.5v2.611a.74.74 0 01-.196.5.682.682 0 01-.503.195h-8.909v3.75h8.295a.64.64 0 01.503.222c.13.13.195.296.195.5v2.417a.739.739 0 01-.195.5.684.684 0 01-.503.194h-8.295v3.861h9.133a.68.68 0 01.502.195c.131.13.196.296.196.5v2.61a.735.735 0 01-.196.5.68.68 0 01-.502.195h-13.266z" fill="currentColor"/></svg>