<?xml version="1.0" encoding="utf-8"?><svg fill="none" xmlns="http://www.w3.org/2000/svg" viewBox="0 0 25 16" width="25" height="16"><g clip-path="url(#jclip0_207_522)"><path d="M24.832 7.784a7.978 7.978 0 01-1.258 4.372 7.722 7.722 0 01-3.422 2.92 7.524 7.524 0 01-4.433.486 7.624 7.624 0 01-3.949-2.115 7.902 7.902 0 01-2.135-4c-.308-1.52-.17-3.1.4-4.54a7.82 7.82 0 012.799-3.547A7.563 7.563 0 0117.089 0h.065a7.495 7.495 0 012.926.58 7.628 7.628 0 012.488 1.68 7.821 7.821 0 011.668 2.526c.389.945.591 1.96.596 2.986v.012z" fill="#F59D1A"/><path d="M15.357 7.785a7.977 7.977 0 01-1.257 4.373 7.722 7.722 0 01-3.423 2.92 7.525 7.525 0 01-4.432.486 7.625 7.625 0 01-3.95-2.115 7.902 7.902 0 01-2.135-4c-.308-1.52-.17-3.1.4-4.54a7.82 7.82 0 012.799-3.547A7.563 7.563 0 017.614.002h.065a7.496 7.496 0 012.926.58 7.63 7.63 0 012.488 1.68 7.823 7.823 0 011.668 2.526c.389.945.591 1.96.597 2.986v.011z" fill="#E7001B"/><path d="M12.415 1.66a7.712 7.712 0 00-2.167 2.715 7.887 7.887 0 00-.775 3.413c0 1.183.265 2.35.775 3.413a7.713 7.713 0 002.168 2.715 7.713 7.713 0 002.167-2.715 7.887 7.887 0 000-6.827 7.713 7.713 0 00-2.168-2.714z" fill="#FC5F01"/></g><defs><clipPath id="jclip0_207_522"><path fill="#fff" d="M0 0h25v16H0z"/></clipPath></defs></svg>