<?xml version="1.0" encoding="utf-8"?><svg viewBox="0 0 32 32" fill="none" xmlns="http://www.w3.org/2000/svg" width="32" height="32"><path d="M16 1.6C8.048 1.6 1.6 8.048 1.6 16S8.048 30.4 16 30.4 30.4 23.952 30.4 16 23.952 1.6 16 1.6zm5.136 20.24c-.192 1.216-1.168 1.648-2.176.944l-4.64-3.216c-.576-.4-.64-1.12-.128-1.616.8-.752 2.032-1.936 3.424-3.264 2.4-2.288 1.872-2.464-1.2-.4l-4.496 3.04c-.592.4-1.6.544-2.272.32L7.056 16.8c-.848-.272-.864-.768-.048-1.104l14.608-6.032c.816-.336 1.376.096 1.232.976l-1.712 11.2z" fill="currentColor"/></svg>