<?xml version="1.0" encoding="utf-8"?><svg fill="none" xmlns="http://www.w3.org/2000/svg" viewBox="0 0 47 16" width="47" height="16"><path d="M17.56.63l-6.14 14.793H7.432L4.525 3.699a2.183 2.183 0 00-.862-1.315A15.925 15.925 0 000 1.177L.108.74h6.464c.4.014.785.161 1.096.418.312.257.532.61.627 1.007l1.616 8.547L13.79.63h3.77zM33.073 10.71c0-3.945-5.28-4.165-5.28-5.918 0-.548.54-1.096 1.617-1.205a7.055 7.055 0 013.663.657l.646-3.178A9.752 9.752 0 0030.164.41c-3.77 0-6.357 2.083-6.357 4.932 0 2.191 1.94 3.287 3.34 4.054 1.401.767 2.047 1.206 2.047 1.754 0 .986-1.184 1.424-2.261 1.424a9.547 9.547 0 01-3.88-.876l-.753 3.178a10.99 10.99 0 004.202.767c3.985.11 6.57-1.973 6.57-4.932zm9.91 4.822h3.448L43.307.74h-3.232a1.867 1.867 0 00-.958.32 1.907 1.907 0 00-.657.776l-5.602 13.808h3.985l.755-2.192h4.847l.538 2.082zm-4.2-5.26l2.047-5.48 1.077 5.48h-3.125zM22.838.629l-3.124 14.795h-3.772L19.068.629h3.77z" fill="#1976D2"/></svg>