<svg id="bag" fill="none" xmlns="http://www.w3.org/2000/svg" viewBox="0 0 20 18">
  <path fill-rule="evenodd" clip-rule="evenodd" d="M6.25 3V2.25C6.25 1.00736 7.25736 0 8.5 0H11.5C12.7426 0 13.75 1.00736 13.75 2.25V3H17.5C18.7426 3 19.75 4.00736 19.75 5.25V8.03126C19.75 8.68433 19.4678 9.29042 18.9989 9.7094C18.9996 9.72285 19 9.73638 19 9.75V15.75C19 16.9926 17.9926 18 16.75 18H3.25C2.00736 18 1 16.9926 1 15.75V9.75C1 9.73638 1.00036 9.72284 1.00108 9.7094C0.532192 9.29042 0.25 8.68433 0.25 8.03126V5.25C0.25 4.00736 1.25736 3 2.5 3H6.25ZM7.75 2.25C7.75 1.83579 8.08579 1.5 8.5 1.5H11.5C11.9142 1.5 12.25 1.83579 12.25 2.25V3H7.75V2.25ZM12.1857 12.5364L17.5 10.4487V15.75C17.5 16.1642 17.1642 16.5 16.75 16.5H3.25C2.83579 16.5 2.5 16.1642 2.5 15.75V10.4487L7.81434 12.5364C8.05493 13.5201 8.94223 14.25 10 14.25C11.0578 14.25 11.9451 13.5201 12.1857 12.5364ZM10.75 11.9829C10.7498 11.9927 10.7497 12.0026 10.7499 12.0124C10.7433 12.4209 10.4101 12.75 10 12.75C9.58994 12.75 9.25673 12.4209 9.2501 12.0124C9.25026 12.0026 9.25023 11.9927 9.25 11.9829V11.25H10.75V11.9829ZM12.25 10.8996L17.7742 8.72932C18.0613 8.61656 18.25 8.33962 18.25 8.03126V5.25C18.25 4.83579 17.9142 4.5 17.5 4.5H2.5C2.08579 4.5 1.75 4.83579 1.75 5.25V8.03126C1.75 8.33962 1.93875 8.61656 2.22576 8.72932L7.75 10.8996V10.5C7.75 10.0858 8.08579 9.75 8.5 9.75H11.5C11.9142 9.75 12.25 10.0858 12.25 10.5V10.8996Z" fill="currentColor"></path>
</svg>