<svg id="check" fill="none" xmlns="http://www.w3.org/2000/svg" viewBox="0 0 20 20">
  <path fill-rule="evenodd" clip-rule="evenodd" d="M17.4078 0.46967C17.2672 0.329018 17.0764 0.25 16.8775 0.25C16.6786 0.25 16.4878 0.329018 16.3472 0.46967L8.39223 8.42462C8.3099 8.50695 8.24787 8.60732 8.21105 8.71778L7.15039 11.8998C7.06055 12.1693 7.13069 12.4664 7.33157 12.6673C7.53244 12.8681 7.82957 12.9383 8.09907 12.8484L11.281 11.7878C11.3915 11.751 11.4919 11.6889 11.5742 11.6066L19.5292 3.65165C19.8221 3.35876 19.8221 2.88388 19.5292 2.59099L17.4078 0.46967ZM9.57808 9.36009L16.8775 2.06066L17.9382 3.12132L10.6387 10.4207L9.04775 10.9511L9.57808 9.36009Z" fill="currentColor"></path>
  <path d="M1 1.75C0.585786 1.75 0.25 2.08579 0.25 2.5L0.25 19C0.25 19.4142 0.585786 19.75 1 19.75H17.5C17.9142 19.75 18.25 19.4142 18.25 19V8.5C18.25 8.08579 17.9142 7.75 17.5 7.75C17.0858 7.75 16.75 8.08579 16.75 8.5V18.25H1.75L1.75 3.25L11.5 3.25C11.9142 3.25 12.25 2.91421 12.25 2.5C12.25 2.08579 11.9142 1.75 11.5 1.75L1 1.75Z" fill="currentColor"></path>
</svg>