<svg id="maestro" fill="none" xmlns="http://www.w3.org/2000/svg" viewBox="0 0 25 16">
  <g clip-path="url(#clip0_207_522)">
    <path d="M24.8325 7.78351C24.8453 9.336 24.4076 10.8576 23.5745 12.1558C22.7414 13.454 21.5505 14.4705 20.1523 15.0767C18.7542 15.683 17.2115 15.8518 15.7195 15.5618C14.2275 15.2718 12.8531 14.536 11.7702 13.4474C10.6872 12.359 9.94435 10.9665 9.63545 9.4464C9.32661 7.92628 9.46557 6.34659 10.0349 4.90723C10.6042 3.46784 11.5783 2.23336 12.8339 1.3599C14.0895 0.486441 15.5703 0.0132249 17.0889 9.78737e-05H17.1536C18.157 -0.00503695 19.1515 0.19192 20.0804 0.57971C21.0094 0.967502 21.8545 1.53854 22.5675 2.26022C23.2806 2.98189 23.8476 3.84007 24.2362 4.78577C24.6248 5.73147 24.8274 6.74616 24.8325 7.77188L24.8325 7.78351Z" fill="#F59D1A"></path>
    <path d="M15.3575 7.78541C15.3704 9.33797 14.9326 10.8596 14.0996 12.1577C13.2665 13.4559 12.0755 14.4724 10.6774 15.0786C9.27921 15.6849 7.73659 15.8537 6.24457 15.5638C4.75257 15.2737 3.37819 14.538 2.29523 13.4494C1.21227 12.3609 0.469383 10.9686 0.160498 9.44837C-0.148387 7.92824 -0.00939555 6.34861 0.559908 4.90922C1.12921 3.46984 2.10325 2.23535 3.35885 1.36189C4.61446 0.488416 6.09522 0.0151909 7.6139 0.002051H7.67866C8.68201 -0.00308383 9.67652 0.193873 10.6055 0.581663C11.5344 0.969451 12.3795 1.54049 13.0926 2.26216C13.8056 2.98384 14.3726 3.84203 14.7612 4.78772C15.1498 5.73342 15.3524 6.74812 15.3575 7.77384V7.78541Z" fill="#E7001B"></path>
    <path d="M12.4155 1.66016C11.4997 2.38384 10.7582 3.31244 10.2481 4.37468C9.7379 5.43692 9.47266 6.60456 9.47266 7.78788C9.47266 8.97126 9.7379 10.1388 10.2481 11.2011C10.7582 12.2633 11.4997 13.1919 12.4155 13.9156C13.3314 13.192 14.073 12.2634 14.5832 11.2012C15.0934 10.1389 15.3586 8.97126 15.3586 7.78788C15.3586 6.60449 15.0934 5.43687 14.5832 4.37463C14.073 3.31238 13.3314 2.3838 12.4155 1.66016Z" fill="#FC5F01"></path>
  </g>
  <defs>
    <clipPath id="clip0_207_522">
      <rect width="25" height="16" fill="white"></rect>
    </clipPath>
  </defs>
</svg>