<?xml version="1.0" encoding="utf-8"?><svg viewBox="0 0 136 48" xmlns="http://www.w3.org/2000/svg" xmlns:xlink="http://www.w3.org/1999/xlink"><style>:root>svg{display:none}:root>svg:target{display:block}</style><svg viewBox="0 0 16 13" fill="none" id="arrow" xmlns="http://www.w3.org/2000/svg"><path fill-rule="evenodd" clip-rule="evenodd" d="M8.803.636a.75.75 0 011.06 0l5.334 5.334a.75.75 0 010 1.06l-5.333 5.333a.75.75 0 11-1.061-1.06l4.053-4.053H1.333a.75.75 0 010-1.5h11.523L8.803 1.697a.75.75 0 010-1.06z" fill="currentColor"/></svg><svg fill="none" viewBox="0 0 20 18" id="bag" xmlns="http://www.w3.org/2000/svg"><path fill-rule="evenodd" clip-rule="evenodd" d="M6.25 3v-.75A2.25 2.25 0 018.5 0h3a2.25 2.25 0 012.25 2.25V3h3.75a2.25 2.25 0 012.25 2.25v2.781a2.25 2.25 0 01-.751 1.678.78.78 0 01.001.041v6A2.25 2.25 0 0116.75 18H3.25A2.25 2.25 0 011 15.75v-6l.001-.04A2.25 2.25 0 01.25 8.03V5.25A2.25 2.25 0 012.5 3h3.75zm1.5-.75a.75.75 0 01.75-.75h3a.75.75 0 01.75.75V3h-4.5v-.75zm4.436 10.286L17.5 10.45v5.301a.75.75 0 01-.75.75H3.25a.75.75 0 01-.75-.75v-5.301l5.314 2.087a2.25 2.25 0 004.372 0zm-1.436-.553v.03a.75.75 0 11-1.5-.03v-.733h1.5v.733zm1.5-1.083l5.524-2.17a.75.75 0 00.476-.699V5.25a.75.75 0 00-.75-.75h-15a.75.75 0 00-.75.75v2.781a.75.75 0 00.476.698L7.75 10.9V10.5a.75.75 0 01.75-.75h3a.75.75 0 01.75.75v.4z" fill="currentColor"/></svg><svg fill="none" viewBox="0 0 22 18" id="card" xmlns="http://www.w3.org/2000/svg"><path d="M12 11.5c0-.497.603-.5 1.1-.5h4.2c.497 0 1.2.003 1.2.5s-.703.5-1.2.5h-4.2c-.497 0-1.1-.003-1.1-.5z" fill="currentColor"/><path fill-rule="evenodd" clip-rule="evenodd" d="M.2 3.9A3.3 3.3 0 013.5.6h15a3.3 3.3 0 013.3 3.3v10.2a3.3 3.3 0 01-3.3 3.3h-15a3.3 3.3 0 01-3.3-3.3V3.9zm3.3-1.5A1.5 1.5 0 002 3.9V6h18V3.9a1.5 1.5 0 00-1.5-1.5h-15zM20 8.075V7.5H2V14.1a1.5 1.5 0 001.5 1.5h15a1.5 1.5 0 001.5-1.5V8.075z" fill="currentColor"/></svg><svg fill="none" viewBox="0 0 20 20" id="check" xmlns="http://www.w3.org/2000/svg"><path fill-rule="evenodd" clip-rule="evenodd" d="M17.408.47a.75.75 0 00-1.06 0L8.391 8.425a.75.75 0 00-.18.293L7.149 11.9a.75.75 0 00.95.948l3.181-1.06a.75.75 0 00.293-.181l7.955-7.955a.75.75 0 000-1.061L17.408.47zm-7.83 8.89l7.3-7.3 1.06 1.061-7.3 7.3-1.59.53.53-1.59z" fill="currentColor"/><path d="M1 1.75a.75.75 0 00-.75.75V19c0 .414.336.75.75.75h16.5a.75.75 0 00.75-.75V8.5a.75.75 0 00-1.5 0v9.75h-15v-15h9.75a.75.75 0 000-1.5H1z" fill="currentColor"/></svg><svg fill="none" viewBox="0 0 24 24" id="close" xmlns="http://www.w3.org/2000/svg"><path d="M18 6L6 18M6 6l12 12" stroke="currentColor" stroke-width="2" stroke-linecap="round" stroke-linejoin="round" fill="currentColor"/></svg><svg fill="none" viewBox="0 0 20 16" id="document" xmlns="http://www.w3.org/2000/svg"><path fill-rule="evenodd" clip-rule="evenodd" d="M3.25 5.125c0-1.036.84-1.875 1.875-1.875h2.25c1.036 0 1.875.84 1.875 1.875v2.25c0 1.036-.84 1.875-1.875 1.875h-2.25A1.875 1.875 0 013.25 7.375v-2.25zm1.875-.375a.375.375 0 00-.375.375v2.25c0 .207.168.375.375.375h2.25a.375.375 0 00.375-.375v-2.25a.375.375 0 00-.375-.375h-2.25z" fill="currentColor"/><path d="M13.75 3.25a.75.75 0 000 1.5H16a.75.75 0 000-1.5h-2.25zM10.75 7.75A.75.75 0 0111.5 7H16a.75.75 0 010 1.5h-4.5a.75.75 0 01-.75-.75zM4 10.75a.75.75 0 000 1.5h12a.75.75 0 000-1.5H4z" fill="currentColor"/><path fill-rule="evenodd" clip-rule="evenodd" d="M.25 2.5A2.25 2.25 0 012.5.25h15a2.25 2.25 0 012.25 2.25V13a2.25 2.25 0 01-2.25 2.25h-15A2.25 2.25 0 01.25 13V2.5zm2.25-.75a.75.75 0 00-.75.75V13c0 .414.336.75.75.75h15a.75.75 0 00.75-.75V2.5a.75.75 0 00-.75-.75h-15z" fill="currentColor"/></svg><svg fill="none" viewBox="0 0 45 16" id="giwi" xmlns="http://www.w3.org/2000/svg"><path d="M22.22 7.45c.78 0 1.248-.684 1.248-1.791 0-1.107-.468-1.792-1.248-1.792s-1.255.66-1.255 1.792c0 1.132.489 1.792 1.255 1.792zm2.174 2.491a.095.095 0 01-.146 0l-.383-.537a1.817 1.817 0 00-1.642-.781c-1.578 0-2.567-1.147-2.567-2.971s.99-2.978 2.567-2.978c1.578 0 2.56 1.147 2.56 2.978 0 .928-.322 1.87-.861 2.196-.096.058-.096.083 0 .115.38.13.708.38.933.717l.354.494a.097.097 0 010 .147l-.815.62zM25.78 2.764h1.096c.028 0 .055.011.075.031.02.02.031.048.031.076v5.554a.108.108 0 01-.106.108H25.78a.102.102 0 01-.073-.03.104.104 0 01-.03-.074V2.868a.106.106 0 01.103-.104zM34.436 6.78c-.145.563-.266 1.1-.354 1.652a.104.104 0 01-.073.093.102.102 0 01-.04.004h-1.49a.102.102 0 01-.103-.057.106.106 0 01-.01-.04 21.492 21.492 0 00-.291-1.35l-.249-1.076c-.05-.211-.113-.552-.16-.838 0-.115-.113-.115-.127 0-.05.283-.113.62-.16.838l-.248 1.075a40.69 40.69 0 00-.29 1.351.104.104 0 01-.114.097h-1.475a.102.102 0 01-.103-.057.104.104 0 01-.01-.04c-.107-.552-.228-1.075-.355-1.652l-1.007-3.913c-.025-.064 0-.115.088-.115h1.11a.113.113 0 01.12.09l.547 2.197c.14.59.24 1.188.298 1.791 0 .108.127.115.145 0 .083-.604.201-1.202.355-1.791l.592-2.172a.115.115 0 01.113-.09h.919a.113.113 0 01.113.09l.596 2.197c.154.59.272 1.188.355 1.791 0 .115.127.108.138 0a12.05 12.05 0 01.298-1.791l.542-2.197a.115.115 0 01.121-.09h1.11c.07 0 .113.05.089.115l-.99 3.888zM36.33 2.764h1.096c.028 0 .055.011.075.031.02.02.031.048.031.076v5.554a.108.108 0 01-.031.076.106.106 0 01-.075.032H36.33a.102.102 0 01-.073-.03.104.104 0 01-.03-.074V2.868a.108.108 0 01.103-.104z" fill="#001EA3"/><path d="M17.46 15.363c.136.168-.07.358-.223.204-1.531-1.369-2.819-1.76-4.092-1.813a15.63 15.63 0 00-2.05.1l-.425.036h-.188c-.25.028-.5.042-.752.043a6.73 6.73 0 01-3.347-.87 6.416 6.416 0 01-2.447-2.438 6.73 6.73 0 01-.883-3.375 6.82 6.82 0 01.883-3.39 6.607 6.607 0 012.405-2.456c1.002-.59 2.141-.9 3.3-.902a6.81 6.81 0 013.402.882 6.473 6.473 0 012.453 2.444 6.73 6.73 0 01.894 3.386c.001.466-.044.93-.135 1.387 0 .064-.028.143-.05.233-.02.09-.035.147-.056.218a7.765 7.765 0 01-.752 1.623c-.043.072-.067 0-.074-.025a3.108 3.108 0 00-.424-1.313c-.238-.4-.562-.74-.949-.994l-.039-.025a3.42 3.42 0 00-.411-.219 4.227 4.227 0 00-.607-.215c-.13-.036-.429-.022-.322-.129a6.184 6.184 0 011.418 0h.043c.014-.155.021-.315.021-.48a4.34 4.34 0 00-.31-1.74 4.303 4.303 0 00-.977-1.467 4.184 4.184 0 00-1.41-.97 4.146 4.146 0 00-1.675-.32 4.034 4.034 0 00-1.676.312 4.07 4.07 0 00-1.402.978c-.407.416-.727.91-.94 1.454a4.388 4.388 0 00-.301 1.71 4.29 4.29 0 00.313 1.716c.221.544.552 1.036.97 1.444a4.12 4.12 0 001.39.965c.524.222 1.088.331 1.656.322h.17v-.043c-.067-.885-.081-1.616.096-1.322.064.104.128.204.188.297.21.317.447.614.71.889l.035.036c.848.867 1.68 1.075 2.567 1.3h.057l.44.111c1.064.284 2.195.742 3.525 2.408l-.018.008zm-2.921-5.329c-.131-.04-.227 0-.277.079a.724.724 0 00.128.634c.149.237.277.358.376.358a.116.116 0 00.088-.043.51.51 0 00.05-.358.905.905 0 00-.365-.67zm-1.475 1.075a.386.386 0 00-.312.133.647.647 0 00.173.842.705.705 0 00.454.165.476.476 0 00.398-.18c.155-.211.067-.512-.231-.766a.751.751 0 00-.482-.194z" fill="#FF8C00"/><path d="M26.95 9.825l-.776.906v-.906h-.518v2.282h.525v-.942c.14-.01.28.031.394.114a.616.616 0 01.233.34c.055.156.123.306.203.449l.02.036h.568l-.06-.111a3.512 3.512 0 01-.188-.427l-.046-.1a1.03 1.03 0 00-.631-.667l.947-.992-.67.018zM28.773 9.775a1.1 1.1 0 00-.819.357 1.123 1.123 0 00-.294.851 1.087 1.087 0 00.275.824 1.065 1.065 0 00.788.348 1.1 1.1 0 00.826-.353 1.127 1.127 0 00.299-.855 1.085 1.085 0 00-.28-.827 1.065 1.065 0 00-.795-.345zm.55 1.187c0 .437-.238.752-.568.752-.33 0-.567-.312-.567-.745 0-.359.177-.753.574-.753.398 0 .56.488.56.746zM32.411 11.654h-.588V9.826h-.521v1.828h-.59V9.826h-.524v2.28h2.752v-2.28h-.529v1.828zM34.397 9.775c-.628 0-1.064.502-1.064 1.226a1.085 1.085 0 00.3.827 1.063 1.063 0 00.81.323c.25.006.5-.041.73-.14l.057-.025-.099-.423-.081.036c-.176.076-.366.111-.557.104a.594.594 0 01-.577-.36.61.61 0 01-.05-.235h1.47v-.086a1.391 1.391 0 000-.168.984.984 0 00-.234-.748.965.965 0 00-.705-.33zm.426.907h-.958a.546.546 0 01.176-.342.536.536 0 01.524-.111.42.42 0 01.144.091c.081.103.126.23.128.362h-.014zM35.915 10.75c0 .488-.028.742-.192.864a.405.405 0 01-.173.072h-.071l.056.44h.064a.68.68 0 00.458-.143c.305-.2.354-.623.354-1.243v-.462h.578v1.827h.525V9.826h-1.613l.014.925zM39.007 9.775c-.628 0-1.064.502-1.064 1.226a1.085 1.085 0 00.3.827 1.062 1.062 0 00.81.323c.25.006.5-.041.73-.14l.057-.025-.099-.423-.082.036c-.175.076-.365.111-.556.104a.594.594 0 01-.593-.355.61.61 0 01-.053-.24h1.472v-.082a1.41 1.41 0 000-.172.984.984 0 00-.23-.742.967.967 0 00-.692-.337zm.425.907h-.957a.547.547 0 01.5-.48.419.419 0 01.312.118.59.59 0 01.142.362h.003zM42.064 11.571l-.035-.09a1.03 1.03 0 00-.632-.666l.947-.993h-.674l-.776.907v-.903h-.525v2.282h.525v-.942c.14-.009.28.031.394.114a.616.616 0 01.233.341c.055.155.123.305.203.448l.02.036h.568l-.06-.111a3.532 3.532 0 01-.188-.423z" fill="#F39627"/><path d="M38.851 9.188h-.237v.358h.237v-.358zM39.404 9.188h-.237v.358h.237v-.358z" fill="#FF8C00"/></svg><svg viewBox="0 0 32 32" fill="none" id="ig" xmlns="http://www.w3.org/2000/svg"><path fill-rule="evenodd" clip-rule="evenodd" d="M1.6 16C1.6 8.048 8.048 1.6 16 1.6S30.4 8.048 30.4 16 23.952 30.4 16 30.4 1.6 23.952 1.6 16zM20 24.8c2.656 0 4.8-2.144 4.8-4.8v-8c0-2.656-2.144-4.8-4.8-4.8h-8A4.794 4.794 0 007.2 12v8c0 2.656 2.144 4.8 4.8 4.8h8zm0-15.68h-8A2.888 2.888 0 009.12 12v8A2.888 2.888 0 0012 22.88h8A2.888 2.888 0 0022.88 20v-8A2.888 2.888 0 0020 9.12zm-4 11.2A4.322 4.322 0 0111.68 16 4.322 4.322 0 0116 11.68 4.322 4.322 0 0120.32 16 4.322 4.322 0 0116 20.32zm4.8-8.305a.792.792 0 01-.8-.8c0-.448.352-.8.8-.8.448 0 .8.352.8.8 0 .448-.352.8-.8.8zM16 18.4a2.4 2.4 0 100-4.8 2.4 2.4 0 000 4.8z" fill="currentColor"/></svg><svg fill="none" viewBox="0 0 136 20" id="logo" xmlns="http://www.w3.org/2000/svg"><path d="M.698 19.722a.746.746 0 01-.503-.194.737.737 0 01-.195-.5V.972c0-.203.065-.37.195-.5A.746.746 0 01.698.278h3.016c.447 0 .773.203.978.61l4.915 8.75 4.916-8.75c.204-.407.53-.61.977-.61h2.988c.205 0 .373.065.503.194.15.13.224.297.224.5v18.056c0 .204-.075.37-.224.5a.683.683 0 01-.503.194h-3.323a.782.782 0 01-.53-.194.675.675 0 01-.196-.5V8.61l-3.128 5.806c-.242.426-.568.639-.977.639H8.88c-.242 0-.437-.056-.586-.167a1.44 1.44 0 01-.391-.472L4.748 8.61v10.417a.737.737 0 01-.196.5.683.683 0 01-.502.194H.698zM29.412 19.722a.746.746 0 01-.503-.194.738.738 0 01-.195-.5v-5.972l-6.48-11.89a1.53 1.53 0 01-.083-.305c0-.148.055-.278.167-.389.13-.13.28-.194.447-.194h3.491c.372 0 .698.194.978.583l3.993 7.167L35.25.86c.223-.389.55-.583.977-.583h3.492a.53.53 0 01.418.194c.112.111.168.241.168.39a.97.97 0 01-.056.305l-6.48 11.889v5.972c0 .204-.074.37-.223.5a.682.682 0 01-.502.194h-3.631zM43.953 19.722a.746.746 0 01-.502-.194.737.737 0 01-.196-.5V.972c0-.203.065-.37.196-.5a.746.746 0 01.502-.194H56.8c.205 0 .373.065.503.194.13.13.196.297.196.5v2.806a.738.738 0 01-.196.5.682.682 0 01-.503.194h-8.63v4.084h8.072a.64.64 0 01.503.222c.13.13.195.296.195.5v2.778a.738.738 0 01-.195.5.683.683 0 01-.503.194H48.17v6.278c0 .204-.065.37-.195.5a.683.683 0 01-.503.194h-3.519zM68.93 20c-2.626 0-4.693-.639-6.201-1.917-1.508-1.277-2.309-3.157-2.402-5.639a75.125 75.125 0 01-.028-2.388c0-1.075.01-1.88.028-2.417.093-2.445.903-4.324 2.43-5.639 1.545-1.333 3.603-2 6.172-2 2.57 0 4.627.667 6.172 2 1.546 1.315 2.356 3.194 2.43 5.639.037 1.074.056 1.88.056 2.417 0 .518-.019 1.314-.056 2.388-.093 2.482-.894 4.362-2.402 5.64C73.621 19.36 71.554 20 68.93 20zm0-4c1.023 0 1.833-.306 2.429-.917.614-.61.94-1.546.977-2.805.038-1.074.056-1.834.056-2.278 0-.481-.018-1.24-.056-2.278-.037-1.259-.363-2.194-.977-2.805-.615-.611-1.424-.917-2.43-.917-1.005 0-1.815.306-2.43.917-.596.61-.921 1.546-.977 2.805A68.844 68.844 0 0065.494 10c0 .982.01 1.74.028 2.278.056 1.259.381 2.194.977 2.805.596.611 1.406.917 2.43.917zM82.08 19.722a.746.746 0 01-.502-.194.737.737 0 01-.195-.5V.972c0-.203.065-.37.195-.5a.746.746 0 01.503-.194h7.596c2.44 0 4.339.555 5.698 1.666 1.378 1.093 2.067 2.649 2.067 4.667 0 1.296-.308 2.398-.922 3.306-.615.907-1.462 1.601-2.542 2.083l3.827 6.833a.688.688 0 01.083.306c0 .148-.065.287-.195.417a.537.537 0 01-.391.166h-3.715c-.54 0-.921-.25-1.145-.75l-3.183-6.11h-2.85v6.166c0 .204-.074.37-.223.5a.683.683 0 01-.502.194H82.08zm7.541-10.805c.857 0 1.509-.204 1.956-.611.446-.426.67-1.01.67-1.75 0-.741-.224-1.325-.67-1.75-.429-.445-1.08-.667-1.956-.667H86.41v4.778h3.212zM109.185 20c-2.663 0-4.748-.639-6.256-1.917-1.49-1.296-2.281-3.166-2.374-5.61-.019-.5-.028-1.316-.028-2.445 0-1.148.009-1.982.028-2.5.093-2.408.903-4.26 2.43-5.556C104.511.657 106.578 0 109.185 0c1.638 0 3.109.278 4.412.833 1.304.537 2.328 1.315 3.072 2.334.764 1 1.155 2.176 1.173 3.527v.056a.5.5 0 01-.195.389.595.595 0 01-.391.139h-3.77c-.242 0-.429-.047-.559-.14-.13-.11-.242-.305-.335-.582-.261-.945-.67-1.602-1.229-1.973-.558-.389-1.294-.583-2.206-.583-2.197 0-3.333 1.222-3.408 3.667-.018.5-.027 1.268-.027 2.305 0 1.037.009 1.824.027 2.361.075 2.445 1.211 3.667 3.408 3.667.912 0 1.657-.194 2.234-.583.577-.408.977-1.065 1.201-1.973.074-.277.177-.463.307-.555.13-.111.326-.167.587-.167h3.77a.57.57 0 01.419.167c.13.111.186.25.167.417-.018 1.351-.409 2.537-1.173 3.555-.744 1-1.768 1.778-3.072 2.333-1.303.538-2.774.806-4.412.806zM122.036 19.722a.747.747 0 01-.503-.194.739.739 0 01-.195-.5V.972c0-.203.065-.37.195-.5a.747.747 0 01.503-.194h13.042c.205 0 .373.065.503.194.13.13.196.297.196.5v2.611a.74.74 0 01-.196.5.682.682 0 01-.503.195h-8.909v3.75h8.295a.64.64 0 01.503.222c.13.13.195.296.195.5v2.417a.739.739 0 01-.195.5.684.684 0 01-.503.194h-8.295v3.861h9.133a.68.68 0 01.502.195c.131.13.196.296.196.5v2.61a.735.735 0 01-.196.5.68.68 0 01-.502.195h-13.266z" fill="currentColor"/></svg><svg fill="none" viewBox="0 0 25 16" id="maestro" xmlns="http://www.w3.org/2000/svg"><g clip-path="url(#jclip0_207_522)"><path d="M24.832 7.784a7.978 7.978 0 01-1.258 4.372 7.722 7.722 0 01-3.422 2.92 7.524 7.524 0 01-4.433.486 7.624 7.624 0 01-3.949-2.115 7.902 7.902 0 01-2.135-4c-.308-1.52-.17-3.1.4-4.54a7.82 7.82 0 012.799-3.547A7.563 7.563 0 0117.089 0h.065a7.495 7.495 0 012.926.58 7.628 7.628 0 012.488 1.68 7.821 7.821 0 011.668 2.526c.389.945.591 1.96.596 2.986v.012z" fill="#F59D1A"/><path d="M15.357 7.785a7.977 7.977 0 01-1.257 4.373 7.722 7.722 0 01-3.423 2.92 7.525 7.525 0 01-4.432.486 7.625 7.625 0 01-3.95-2.115 7.902 7.902 0 01-2.135-4c-.308-1.52-.17-3.1.4-4.54a7.82 7.82 0 012.799-3.547A7.563 7.563 0 017.614.002h.065a7.496 7.496 0 012.926.58 7.63 7.63 0 012.488 1.68 7.823 7.823 0 011.668 2.526c.389.945.591 1.96.597 2.986v.011z" fill="#E7001B"/><path d="M12.415 1.66a7.712 7.712 0 00-2.167 2.715 7.887 7.887 0 00-.775 3.413c0 1.183.265 2.35.775 3.413a7.713 7.713 0 002.168 2.715 7.713 7.713 0 002.167-2.715 7.887 7.887 0 000-6.827 7.713 7.713 0 00-2.168-2.714z" fill="#FC5F01"/></g><defs><clipPath id="jclip0_207_522"><path fill="#fff" d="M0 0h25v16H0z"/></clipPath></defs></svg><svg fill="none" viewBox="0 0 72 48" id="menu" xmlns="http://www.w3.org/2000/svg"><path d="M0 48h72v-8H0v8zm0-20h72v-8H0v8zM0 0v8h72V0H0z" fill="currentColor"/></svg><svg viewBox="0 0 32 32" fill="none" id="tg" xmlns="http://www.w3.org/2000/svg"><path d="M16 1.6C8.048 1.6 1.6 8.048 1.6 16S8.048 30.4 16 30.4 30.4 23.952 30.4 16 23.952 1.6 16 1.6zm5.136 20.24c-.192 1.216-1.168 1.648-2.176.944l-4.64-3.216c-.576-.4-.64-1.12-.128-1.616.8-.752 2.032-1.936 3.424-3.264 2.4-2.288 1.872-2.464-1.2-.4l-4.496 3.04c-.592.4-1.6.544-2.272.32L7.056 16.8c-.848-.272-.864-.768-.048-1.104l14.608-6.032c.816-.336 1.376.096 1.232.976l-1.712 11.2z" fill="currentColor"/></svg><svg viewBox="0 0 32 32" fill="none" id="tt" xmlns="http://www.w3.org/2000/svg"><g clip-path="url(#mclip0_380_515)"><path d="M16 0C7.165 0 0 7.165 0 16s7.165 16 16 16 16-7.165 16-16S24.835 0 16 0zm8.027 12.242v2.166a7.542 7.542 0 01-4.626-1.572l.015 6.669a5.586 5.586 0 01-1.675 3.975 5.702 5.702 0 01-3.186 1.593c-.282.042-.57.063-.86.063a5.721 5.721 0 01-4.046-1.656 5.59 5.59 0 01-1.665-4.355 5.597 5.597 0 011.412-3.376 5.721 5.721 0 014.299-1.923c.29 0 .578.022.86.064V16.92a2.703 2.703 0 00-3.557 2.603 2.7 2.7 0 001.32 2.275 2.69 2.69 0 002.237.246 2.7 2.7 0 001.855-2.562l.004-4.466V6.864h2.983a4.615 4.615 0 001.839 3.645c.774.584 1.738.93 2.782.93h.009v.803z" fill="currentColor"/></g><defs><clipPath id="mclip0_380_515"><path fill="#fff" d="M0 0h32v32H0z"/></clipPath></defs></svg><svg fill="none" viewBox="0 0 47 16" id="visa" xmlns="http://www.w3.org/2000/svg"><path d="M17.56.63l-6.14 14.793H7.432L4.525 3.699a2.183 2.183 0 00-.862-1.315A15.925 15.925 0 000 1.177L.108.74h6.464c.4.014.785.161 1.096.418.312.257.532.61.627 1.007l1.616 8.547L13.79.63h3.77zM33.073 10.71c0-3.945-5.28-4.165-5.28-5.918 0-.548.54-1.096 1.617-1.205a7.055 7.055 0 013.663.657l.646-3.178A9.752 9.752 0 0030.164.41c-3.77 0-6.357 2.083-6.357 4.932 0 2.191 1.94 3.287 3.34 4.054 1.401.767 2.047 1.206 2.047 1.754 0 .986-1.184 1.424-2.261 1.424a9.547 9.547 0 01-3.88-.876l-.753 3.178a10.99 10.99 0 004.202.767c3.985.11 6.57-1.973 6.57-4.932zm9.91 4.822h3.448L43.307.74h-3.232a1.867 1.867 0 00-.958.32 1.907 1.907 0 00-.657.776l-5.602 13.808h3.985l.755-2.192h4.847l.538 2.082zm-4.2-5.26l2.047-5.48 1.077 5.48h-3.125zM22.838.629l-3.124 14.795h-3.772L19.068.629h3.77z" fill="#1976D2"/></svg></svg>