<svg id="tg" viewBox="0 0 32 32" fill="none" xmlns="http://www.w3.org/2000/svg">
  <path d="M16 1.59961C8.04798 1.59961 1.59998 8.04761 1.59998 15.9996C1.59998 23.9516 8.04798 30.3996 16 30.3996C23.952 30.3996 30.4 23.9516 30.4 15.9996C30.4 8.04761 23.952 1.59961 16 1.59961ZM21.136 21.8396C20.944 23.0556 19.968 23.4876 18.96 22.7836L14.32 19.5676C13.744 19.1676 13.68 18.4476 14.192 17.9516C14.992 17.1996 16.224 16.0156 17.616 14.6876C20.016 12.3996 19.488 12.2236 16.416 14.2876L11.92 17.3276C11.328 17.7276 10.32 17.8716 9.64797 17.6476L7.05597 16.7996C6.20797 16.5276 6.19198 16.0316 7.00798 15.6956L21.616 9.66361C22.432 9.32761 22.992 9.75961 22.848 10.6396L21.136 21.8396Z" fill="currentColor" />
</svg>