<svg id="visa" fill="none" xmlns="http://www.w3.org/2000/svg" viewBox="0 0 47 16">
  <path d="M17.5597 0.629379L11.4194 15.4235H7.43316L4.52474 3.69779C4.40923 3.16529 4.10175 2.69615 3.66282 2.38279C2.4934 1.83357 1.26422 1.42886 0 1.17731L0.108341 0.739004H6.57203C6.97273 0.753364 7.3575 0.900242 7.66818 1.15735C7.97964 1.41444 8.19951 1.76773 8.2951 2.16363L9.91142 10.7114L13.7893 0.629803L17.5597 0.629379ZM33.0729 10.711C33.0729 6.76585 27.7937 6.54625 27.7937 4.7933C27.7937 4.24528 28.3322 3.69737 29.41 3.58783C30.6663 3.47494 31.9297 3.70173 33.0729 4.24528L33.7189 1.06735C32.5837 0.628348 31.3785 0.405587 30.1636 0.410227C26.3933 0.410227 23.8075 2.49257 23.8075 5.34166C23.8075 7.53337 25.7464 8.62921 27.1477 9.39625C28.5481 10.1634 29.1942 10.6018 29.1942 11.1497C29.1942 12.136 28.0096 12.5743 26.9326 12.5743C25.5935 12.5578 24.2735 12.2594 23.0539 11.6976L22.3003 14.8756C23.6386 15.4039 25.0653 15.6643 26.5016 15.6427C30.4871 15.7523 33.0729 13.6704 33.0729 10.7114V10.711ZM42.9835 15.5332H46.4312L43.3069 0.739004H40.0751C39.7333 0.755388 39.4027 0.866026 39.1175 1.05907C38.8332 1.25211 38.6053 1.52027 38.4595 1.83485L32.8578 15.6427H36.8432L37.5976 13.451H42.445L42.9835 15.5332ZM38.7822 10.273L40.8295 4.79372L41.9065 10.273H38.7822ZM22.8388 0.629379L19.7145 15.4235H15.9434L19.0677 0.629379H22.8388Z" fill="#1976D2"></path>
</svg>